<svg width="241" height="241" viewBox="0 0 241 241" fill="none" xmlns="http://www.w3.org/2000/svg">
<g filter="url(#filter0_d_152_205)">
<rect x="215.359" y="140.409" width="15.6638" height="20.885" transform="rotate(106.549 215.359 140.409)" fill="#9A7356"/>
<rect x="49.819" y="91.2207" width="15.6638" height="20.885" transform="rotate(106.549 49.819 91.2207)" fill="#9A7356"/>
<rect x="100.288" y="215.358" width="15.6638" height="20.885" transform="rotate(-163.451 100.288 215.358)" fill="#9A7356"/>
<rect x="149.475" y="49.8193" width="15.6638" height="20.885" transform="rotate(-163.451 149.475 49.8193)" fill="#9A7356"/>
<rect x="55.4692" y="192.599" width="15.6638" height="20.885" transform="rotate(-133.451 55.4692 192.599)" fill="#9A7356"/>
<rect x="180.838" y="73.8311" width="15.6638" height="20.885" transform="rotate(-133.451 180.838 73.8311)" fill="#9A7356"/>
<rect x="28.0356" y="150.481" width="15.6638" height="20.885" transform="rotate(-103.451 28.0356 150.481)" fill="#9A7356"/>
<rect x="195.992" y="110.31" width="15.6638" height="20.885" transform="rotate(-103.451 195.992 110.31)" fill="#9A7356"/>
<rect x="48.0972" y="55.4697" width="15.6638" height="20.885" transform="rotate(-43.4513 48.0972 55.4697)" fill="#9A7356"/>
<rect x="166.864" y="180.838" width="15.6638" height="20.885" transform="rotate(-43.4513 166.864 180.838)" fill="#9A7356"/>
<rect x="90.2158" y="28.0356" width="15.6638" height="20.885" transform="rotate(-13.4513 90.2158 28.0356)" fill="#9A7356"/>
<rect x="130.388" y="195.992" width="15.6638" height="20.885" transform="rotate(-13.4513 130.388 195.992)" fill="#9A7356"/>
<path fill-rule="evenodd" clip-rule="evenodd" d="M95.4419 203.27C49.6948 189.677 23.6289 141.572 37.2221 95.825C50.8153 50.0779 98.9202 24.012 144.667 37.6052C190.414 51.1984 216.48 99.3032 202.887 145.05C189.294 190.797 141.189 216.863 95.4419 203.27ZM100.498 186.253C137.124 197.136 175.57 176.492 186.371 140.143C197.171 103.794 176.236 65.5049 139.611 54.6221C102.986 43.7394 64.5392 64.3837 53.7386 100.733C42.9379 137.082 63.873 175.37 100.498 186.253Z" fill="#9A7356"/>
<path fill-rule="evenodd" clip-rule="evenodd" d="M106.231 167.878C79.9712 160.075 65.0089 132.462 72.8116 106.202C80.6144 79.9426 108.227 64.9803 134.487 72.7831C160.747 80.5858 175.709 108.199 167.906 134.459C160.104 160.718 132.491 175.68 106.231 167.878ZM109.133 158.11C130.157 164.357 152.226 152.506 158.426 131.641C164.625 110.777 152.608 88.798 131.585 82.5511C110.561 76.3042 88.4921 88.1544 82.2924 109.019C76.0926 129.884 88.1097 151.863 109.133 158.11Z" fill="#9A7356"/>
<circle cx="120.197" cy="120.419" r="24.801" transform="rotate(-163.451 120.197 120.419)" fill="#9A7356"/>
<rect x="119.599" y="136.213" width="8.35401" height="88.7614" transform="rotate(-163.451 119.599 136.213)" fill="#9A7356"/>
<rect x="102.3" y="106.622" width="8.35401" height="92.4231" transform="rotate(-43.4513 102.3 106.622)" fill="#9A7356"/>
<rect width="8.5378" height="94.3506" transform="matrix(-0.232619 -0.972568 -0.972568 0.232619 144.15 120.374)" fill="#9A7356"/>
<path d="M115.018 138.762C104.791 135.723 98.9629 124.968 102.002 114.741C105.041 104.513 115.796 98.6855 126.024 101.724C136.251 104.764 142.078 115.519 139.039 125.746C136 135.973 125.246 141.8 115.018 138.762ZM116.044 135.305C124.363 137.777 133.11 133.037 135.582 124.719C138.053 116.401 133.313 107.654 124.995 105.182C116.677 102.711 107.931 107.45 105.459 115.768C102.987 124.086 107.726 132.833 116.044 135.305Z" fill="#442925"/>
</g>
<defs>
<filter id="filter0_d_152_205" x="12.992" y="22.9921" width="214.712" height="214.712" filterUnits="userSpaceOnUse" color-interpolation-filters="sRGB">
<feFlood flood-opacity="0" result="BackgroundImageFix"/>
<feColorMatrix in="SourceAlpha" type="matrix" values="0 0 0 0 0 0 0 0 0 0 0 0 0 0 0 0 0 0 127 0" result="hardAlpha"/>
<feOffset dy="10"/>
<feGaussianBlur stdDeviation="5.7"/>
<feComposite in2="hardAlpha" operator="out"/>
<feColorMatrix type="matrix" values="0 0 0 0 0 0 0 0 0 0 0 0 0 0 0 0 0 0 0.75 0"/>
<feBlend mode="normal" in2="BackgroundImageFix" result="effect1_dropShadow_152_205"/>
<feBlend mode="normal" in="SourceGraphic" in2="effect1_dropShadow_152_205" result="shape"/>
</filter>
</defs>
</svg>
