<svg width="325" height="326" viewBox="0 0 325 326" fill="none" xmlns="http://www.w3.org/2000/svg">
<g opacity="0.55" filter="url(#filter0_d_448_791)">
<rect x="290.443" y="190.123" width="20.7702" height="27.6936" transform="rotate(106.549 290.443 190.123)" fill="#9A7356"/>
<rect x="66.691" y="123.638" width="20.7702" height="27.6936" transform="rotate(106.549 66.691 123.638)" fill="#9A7356"/>
<rect x="135.104" y="290.998" width="20.7702" height="27.6936" transform="rotate(-163.451 135.104 290.998)" fill="#9A7356"/>
<path d="M74.4043 205.464C74.4043 205.464 54.9656 169.59 64.6849 187.527C74.4043 205.464 103.603 189.642 103.603 189.642C103.603 189.642 132.803 173.821 123.083 155.884C113.364 137.947 132.803 173.821 132.803 173.821L74.4043 205.464Z" fill="#9A7356"/>
<path d="M78.454 212.938L74.4043 205.464L103.603 189.642L132.803 173.821L136.852 181.295L107.653 197.116L78.454 212.938Z" fill="#9A7356"/>
<path d="M78.454 212.938C78.454 212.938 97.8926 248.812 88.1733 230.875C78.454 212.938 107.653 197.116 107.653 197.116C107.653 197.116 136.852 181.295 146.572 199.232C156.291 217.169 136.852 181.295 136.852 181.295L78.454 212.938Z" fill="#9A7356"/>
<path d="M187.03 144.436C187.03 144.436 167.591 108.562 177.31 126.499C187.03 144.436 216.229 128.615 216.229 128.615C216.229 128.615 245.428 112.793 235.709 94.8558C225.989 76.9187 245.428 112.793 245.428 112.793L187.03 144.436Z" fill="#9A7356"/>
<path d="M191.079 151.91L187.03 144.436L216.229 128.615L245.428 112.793L249.478 120.267L220.279 136.088L191.079 151.91Z" fill="#9A7356"/>
<path d="M191.079 151.91C191.079 151.91 210.518 187.784 200.799 169.847C191.079 151.91 220.279 136.088 220.279 136.088C220.279 136.088 249.478 120.267 259.197 138.204C268.916 156.141 249.478 120.267 249.478 120.267L191.079 151.91Z" fill="#9A7356"/>
<path d="M119.343 75.3299C119.343 75.3299 155.217 55.8912 137.28 65.6105C119.343 75.3299 135.164 104.529 135.164 104.529C135.164 104.529 150.986 133.728 168.923 124.009C186.86 114.29 150.986 133.728 150.986 133.728L119.343 75.3299Z" fill="#9A7356"/>
<path d="M111.869 79.3796L119.343 75.3299L135.164 104.529L150.986 133.728L143.512 137.778L127.69 108.579L111.869 79.3796Z" fill="#9A7356"/>
<path d="M111.869 79.3796C111.869 79.3796 75.9945 98.8182 93.9316 89.0989C111.869 79.3796 127.69 108.579 127.69 108.579C127.69 108.579 143.512 137.778 125.575 147.497C107.638 157.216 143.512 137.778 143.512 137.778L111.869 79.3796Z" fill="#9A7356"/>
<path d="M180.369 187.954C180.369 187.954 216.243 168.515 198.306 178.235C180.369 187.954 196.191 217.153 196.191 217.153C196.191 217.153 212.013 246.352 229.95 236.633C247.887 226.914 212.013 246.352 212.013 246.352L180.369 187.954Z" fill="#9A7356"/>
<path d="M172.895 192.004L180.369 187.954L196.191 217.153L212.013 246.352L204.539 250.402L188.717 221.203L172.895 192.004Z" fill="#9A7356"/>
<path d="M172.895 192.004C172.895 192.004 137.021 211.442 154.958 201.723C172.895 192.004 188.717 221.203 188.717 221.203C188.717 221.203 204.539 250.402 186.602 260.121C168.665 269.841 204.539 250.402 204.539 250.402L172.895 192.004Z" fill="#9A7356"/>
<rect x="201.589" y="67.2451" width="20.7702" height="27.6936" transform="rotate(-163.451 201.589 67.2451)" fill="#9A7356"/>
<rect x="37.7765" y="203.361" width="20.7702" height="27.6936" transform="rotate(-103.451 37.7765 203.361)" fill="#9A7356"/>
<rect x="264.793" y="149.063" width="20.7702" height="27.6936" transform="rotate(-103.451 264.793 149.063)" fill="#9A7356"/>
<rect x="65.0074" y="75.2549" width="20.7702" height="27.6936" transform="rotate(-43.4513 65.0074 75.2549)" fill="#9A7356"/>
<rect x="225.539" y="244.708" width="20.7702" height="27.6936" transform="rotate(-43.4513 225.539 244.708)" fill="#9A7356"/>
<rect x="121.866" y="38.3306" width="20.7702" height="27.6936" transform="rotate(-13.4513 121.866 38.3306)" fill="#9A7356"/>
<rect x="176.164" y="265.348" width="20.7702" height="27.6936" transform="rotate(-13.4513 176.164 265.348)" fill="#9A7356"/>
<rect x="249.972" y="65.563" width="20.7702" height="27.6936" transform="rotate(46.5487 249.972 65.563)" fill="#9A7356"/>
<rect x="80.5193" y="226.095" width="20.7702" height="27.6936" transform="rotate(46.5487 80.5193 226.095)" fill="#9A7356"/>
<path d="M131.316 273.393C70.6534 255.368 36.0884 191.579 54.1133 130.917C72.1384 70.2546 135.928 35.6898 196.59 53.7148C257.253 71.74 291.817 135.529 273.792 196.192C255.766 256.854 191.978 291.418 131.316 273.393ZM138.021 250.827C186.587 265.258 237.569 237.882 251.891 189.682C266.213 141.482 238.452 90.7099 189.886 76.2789C141.319 61.848 90.3383 89.2233 76.0161 137.423C61.694 185.623 89.4543 236.396 138.021 250.827Z" fill="#9A7356"/>
<circle cx="162.075" cy="162.412" r="40.8011" transform="rotate(-163.451 162.075 162.412)" fill="#9A7356"/>
<path d="M154.781 186.97C141.219 182.94 133.492 168.679 137.522 155.117C141.551 141.555 155.812 133.828 169.374 137.857C182.936 141.887 190.664 156.148 186.634 169.71C182.604 183.272 168.343 190.999 154.781 186.97ZM156.143 182.385C167.174 185.663 178.772 179.378 182.05 168.348C185.327 157.318 179.043 145.718 168.012 142.441C156.982 139.163 145.382 145.448 142.105 156.479C138.828 167.509 145.113 179.108 156.143 182.385Z" fill="#442925"/>
</g>
<defs>
<filter id="filter0_d_448_791" x="21.5449" y="32.099" width="281.582" height="281.582" filterUnits="userSpaceOnUse" color-interpolation-filters="sRGB">
<feFlood flood-opacity="0" result="BackgroundImageFix"/>
<feColorMatrix in="SourceAlpha" type="matrix" values="0 0 0 0 0 0 0 0 0 0 0 0 0 0 0 0 0 0 127 0" result="hardAlpha"/>
<feOffset dy="10"/>
<feGaussianBlur stdDeviation="5.7"/>
<feComposite in2="hardAlpha" operator="out"/>
<feColorMatrix type="matrix" values="0 0 0 0 0 0 0 0 0 0 0 0 0 0 0 0 0 0 0.25 0"/>
<feBlend mode="normal" in2="BackgroundImageFix" result="effect1_dropShadow_448_791"/>
<feBlend mode="normal" in="SourceGraphic" in2="effect1_dropShadow_448_791" result="shape"/>
</filter>
</defs>
</svg>
