<svg width="368" height="368" viewBox="0 0 368 368" fill="none" xmlns="http://www.w3.org/2000/svg">
<rect y="197.919" width="29.1671" height="39.0303" transform="rotate(-90 0 197.919)" fill="#9A7356"/>
<rect x="328.969" y="197.919" width="29.1671" height="39.0303" transform="rotate(-90 328.969 197.919)" fill="#9A7356"/>
<rect x="167.156" width="29.2727" height="38.8894" fill="#9A7356"/>
<rect x="167.156" y="329.11" width="29.2727" height="38.8894" fill="#9A7356"/>
<rect x="167.156" y="183.875" width="29.4204" height="142.574" fill="#9A7356"/>
<rect width="29.3408" height="161.612" transform="matrix(-0.501357 -0.865241 -0.866807 0.498645 321.943 129.317)" fill="#9A7356"/>
<rect width="29.3408" height="161.612" transform="matrix(-0.501357 0.865241 -0.866807 -0.498645 196.268 184.522)" fill="#9A7356"/>
<rect x="196.268" y="185.208" width="29.4204" height="142.574" transform="rotate(-180 196.268 185.208)" fill="#9A7356"/>
<rect width="29.3408" height="161.612" transform="matrix(0.501357 0.865241 0.866807 -0.498645 41.4551 239.772)" fill="#9A7356"/>
<rect width="29.3408" height="161.612" transform="matrix(0.501357 -0.865241 0.866807 0.498645 167.156 184.575)" fill="#9A7356"/>
<rect width="29.1935" height="38.9952" transform="matrix(0.501357 0.865241 -0.866807 0.498644 336.031 79.0352)" fill="#9A7356"/>
<rect width="29.1935" height="38.9952" transform="matrix(0.501357 0.865241 -0.866807 0.498644 51.125 242.926)" fill="#9A7356"/>
<rect width="29.1935" height="38.9952" transform="matrix(-0.501357 0.865241 -0.866807 -0.498645 350.664 262.375)" fill="#9A7356"/>
<rect width="29.1935" height="38.9952" transform="matrix(-0.501357 0.865241 -0.866807 -0.498645 65.7559 98.4722)" fill="#9A7356"/>
<rect width="29.2464" height="38.9247" transform="matrix(-0.866807 0.498644 -0.501357 -0.865241 288.682 334.821)" fill="#9A7356"/>
<rect width="29.2464" height="38.9247" transform="matrix(-0.866807 0.498644 -0.501357 -0.865241 124.189 50.9448)" fill="#9A7356"/>
<rect width="29.2464" height="38.9247" transform="matrix(-0.866806 -0.498645 0.501357 -0.865241 104.68 349.412)" fill="#9A7356"/>
<rect width="29.2464" height="38.9247" transform="matrix(-0.866806 -0.498645 0.501357 -0.865241 269.154 65.5322)" fill="#9A7356"/>
<path d="M181.561 22.1748C270.75 22.175 343.052 94.2165 343.052 183.084C343.052 271.951 270.75 343.993 181.561 343.993C92.3711 343.993 20.0685 271.951 20.0684 183.084C20.0684 94.2164 92.371 22.1748 181.561 22.1748ZM181.57 55.2393C110.165 55.2393 52.2793 112.481 52.2793 183.092C52.2794 253.703 110.165 310.944 181.57 310.944C252.976 310.944 310.861 253.703 310.861 183.092C310.861 112.481 252.976 55.2393 181.57 55.2393Z" fill="#9A7356"/>
<path d="M182.556 95.9331C230.932 95.9332 270.147 135.008 270.147 183.209C270.147 231.411 230.932 270.486 182.556 270.486C134.18 270.486 94.9629 231.411 94.9629 183.209C94.9629 135.008 134.18 95.9331 182.556 95.9331ZM182.564 113.872C143.834 113.872 112.438 144.919 112.438 183.218C112.438 221.517 143.834 252.565 182.564 252.565C221.294 252.565 252.691 221.517 252.691 183.218C252.691 144.919 221.294 113.872 182.564 113.872Z" fill="#9A7356"/>
</svg>
