<svg width="1970" height="864" viewBox="0 0 1970 864" fill="none" xmlns="http://www.w3.org/2000/svg">
<path d="M262.833 812.381L243.156 850.214H282.668L315.53 809.217L342.212 740.362V720.368L344.849 707.186L370.233 682.799L353.783 686.446L328.32 700.859L303.841 746.865L286.446 767.737L279.559 793.706L262.833 812.381Z" fill="#6A7570"/>
<path d="M282.67 850.216H358.743L379.365 802.891C379.365 802.891 405.615 787.248 405.615 785.315C405.615 783.338 418.72 736.98 418.72 736.98L437.217 679.549L424.427 670.585L383.812 684.251L375.902 677.396L370.235 682.801L344.851 707.188L342.214 720.37V740.363L315.532 809.219L282.67 850.216Z" fill="#4F5B56"/>
<path d="M342.213 674.717L328.321 700.862L353.783 686.449L370.234 682.802L375.901 677.397L390.974 581.474L398.923 541.795L384.519 533.754L381.568 522.022L383.811 518.551L385.818 515.431L369.683 506.071L367.557 517.76L358.624 595.974L356.302 639.915L342.213 674.717Z" fill="#6A7570"/>
<path d="M379.364 802.892L358.742 850.216H439.223L458.546 751.613C458.546 751.613 484.324 711.582 487.393 708.155C490.463 704.727 499.633 705.475 499.633 705.475L507.071 615.044L521.121 583.231L513.092 584.637L484.048 576.991L470.195 632.005L462.915 639.827L448.432 644.704L437.216 679.549L418.719 736.98C418.719 736.98 405.614 783.338 405.614 785.315C405.614 787.249 379.364 802.892 379.364 802.892Z" fill="#465355"/>
<path d="M369.683 506.07L385.818 515.429L383.811 518.549C383.811 518.549 402.505 534.895 404.079 536.653C405.653 538.41 427.692 544.342 440.364 554.625C453.076 564.863 476.689 570.487 486.527 573.387C496.366 576.331 513.092 584.636 513.092 584.636L521.12 583.23L538.751 580.154L522.812 576.595C522.812 576.595 471.651 560.732 445.638 544.606C419.624 528.48 425.094 526.546 425.094 526.546C425.094 526.546 403.449 508.706 401.678 500.797L370.43 502.115L369.683 506.07Z" fill="#97A753"/>
<path d="M390.975 581.474L375.902 677.397L383.813 684.252L424.427 670.586L437.217 679.55L448.433 644.705L462.916 639.827L470.197 632.006L484.05 576.992L442.255 565.962L398.925 541.795L390.975 581.474Z" fill="#4F5B56"/>
<path d="M398.924 541.793L442.254 565.96L484.049 576.989L513.093 584.635C513.093 584.635 496.367 576.33 486.528 573.386C476.689 570.486 453.076 564.862 440.365 554.623C427.692 544.341 405.654 538.409 404.079 536.652C402.505 534.894 383.812 518.548 383.812 518.548L381.568 522.019L384.52 533.752L398.924 541.793Z" fill="#4E794D"/>
<path d="M411.32 500.403L401.678 500.798C403.449 508.708 425.094 526.548 425.094 526.548C425.094 526.548 419.624 528.481 445.637 544.607C471.651 560.734 522.812 576.596 522.812 576.596L538.751 580.156L544.576 579.145L547.173 584.989L558.35 586.835L576.689 601.467L657.288 598.523C650.047 593.338 630.369 591.712 630.369 591.712C630.369 591.712 620.334 580.727 618.799 579.013C617.264 577.299 585.544 576.113 585.544 576.113L580.743 571.192L562.364 564.6C562.364 564.6 524.544 541.444 499.396 518.726C474.288 496.009 481.057 484.804 481.057 483.09C481.057 481.376 460.514 481.64 460.514 481.64L450.675 474.785L423.756 477.949L432.414 498.601L411.32 500.403Z" fill="#4E794D"/>
<path d="M423.756 477.947L411.319 500.401L432.414 498.6L423.756 477.947Z" fill="#465355"/>
<path d="M458.545 751.614L439.222 850.217H546.582L600.656 830.224L607.11 827.763L586.212 710.617L577.672 705.476L560.317 648.353L565.551 629.194L557.365 618.956L547.172 584.99L544.575 579.146L538.75 580.156L521.119 583.232L507.07 615.045L499.632 705.476C499.632 705.476 490.462 704.729 487.392 708.156C484.323 711.583 458.545 751.614 458.545 751.614Z" fill="#4F5B56"/>
<path d="M454.376 465.731L450.677 474.783L460.516 481.638C460.516 481.638 481.059 481.374 481.059 483.088C481.059 484.802 474.29 496.007 499.398 518.724C524.546 541.442 562.366 564.599 562.366 564.599L580.745 571.19L585.546 576.111C585.546 576.111 617.266 577.297 618.801 579.011C620.336 580.725 630.371 591.71 630.371 591.71C630.371 591.71 650.049 593.336 657.29 598.521L662.957 598.301L704.595 613.944L720.612 618.954C720.612 618.954 707.664 610.649 702.981 605.376C698.259 600.147 688.105 600.015 688.105 600.015C688.105 600.015 683.028 590.568 682.202 589.645C681.375 588.722 675.197 582.175 671.812 578.396C668.428 574.617 667.759 561.215 667.759 561.215C667.759 561.215 655.519 555.327 646.113 553.394C636.708 551.416 585.113 504.312 564.57 485.285C544.027 466.259 535.054 454.263 535.054 454.263C535.054 454.263 542.689 445.958 536.353 443.541C530.016 441.081 491.212 435.192 491.212 435.192L483.892 436.686L475.785 445.255L469.252 446.705L464.884 456.724L454.376 465.731Z" fill="#97A753"/>
<path d="M507.503 431.811L491.21 435.194C491.21 435.194 530.014 441.082 536.35 443.543C542.686 445.96 535.051 454.265 535.051 454.265C535.051 454.265 544.024 466.261 564.568 485.287C585.111 504.313 636.705 551.418 646.111 553.395C655.517 555.329 667.756 561.217 667.756 561.217C667.756 561.217 668.425 574.619 671.81 578.398C675.194 582.177 681.373 588.724 682.199 589.647C683.026 590.57 688.103 600.017 688.103 600.017C688.103 600.017 698.256 600.149 702.979 605.378C707.662 610.65 720.61 618.955 720.61 618.955L771.181 634.818C758.076 622.954 764.294 615.748 759.138 610.035C754.022 604.279 742.767 591.712 742.767 591.712C742.767 591.712 724.821 580.99 718.052 573.389C711.283 565.831 681.334 536.786 666.025 526.547C650.716 516.265 637.138 480.146 634.541 472.324C631.904 464.547 638.476 460.153 634.541 453.078C630.605 445.96 620.137 435.722 606.441 427.856C606.441 427.812 606.402 427.812 606.402 427.812L594.517 425L528.479 435.721L507.503 431.811Z" fill="#4E794D"/>
<path d="M546.583 850.216H1056.27L1026.56 734.037L1023.05 687.152L1014.08 625.898L1004.16 600.72L976.26 625.634L959.77 635.213L920.73 657.887L916.361 665.181L873.071 674.453L768.544 749.152L725.687 759.918L694.675 757.457L683.735 765.762L661.42 796.521L645.049 808.341V808.385L630.369 818.974L607.111 827.763L600.656 830.223L546.583 850.216Z" fill="#385057"/>
<path d="M547.172 584.988L557.365 618.955L565.551 629.193L560.316 648.351L577.672 705.474L586.212 710.616L607.109 827.762L630.368 818.974L645.048 808.384V808.34L637.373 752.36H633.438L621.946 721.864L616.712 689.744L601.954 678.011L598.688 661.885L576.688 601.466L558.349 586.834L547.172 584.988Z" fill="#334C53"/>
<path d="M576.689 601.466L598.688 661.884L601.955 678.011L616.713 689.743L621.947 721.864L633.439 752.359H637.374L645.048 808.34L661.42 796.52L683.734 765.761L694.675 757.456L725.686 759.917L768.544 749.151L873.071 674.452L916.361 665.18L905.853 665.707C905.853 665.707 905.814 665.707 905.735 665.707L884.326 666.762L856.778 668.124L844.814 666.63L809.867 662.28L771.181 634.817L720.61 618.954L704.592 613.945L662.955 598.302L657.288 598.522L576.689 601.466Z" fill="#465355"/>
<path d="M630.371 433.525L606.443 427.856C620.138 435.722 630.607 445.96 634.542 453.079C638.478 460.153 631.905 464.547 634.542 472.325C637.14 480.146 650.717 516.266 666.026 526.548C681.335 536.786 711.284 565.831 718.053 573.389C724.822 580.991 742.768 591.712 742.768 591.712C742.768 591.712 754.024 604.279 759.14 610.036C764.295 615.748 758.077 622.954 771.182 634.818L809.868 662.282L844.815 666.632C830.726 663.688 812.19 634.994 798.731 627.304C785.271 619.615 788.577 615.572 780.352 606.432C772.166 597.293 775.275 587.933 767.483 575.103C759.651 562.316 771.34 560.646 771.34 560.646C771.34 560.646 753.945 539.247 745.169 526.548L691.607 481.64L630.371 433.525Z" fill="#97A753"/>
<path d="M750.403 523.601L745.169 526.545C753.945 539.244 771.34 560.643 771.34 560.643C771.34 560.643 759.652 562.313 767.483 575.099C775.275 587.93 772.166 597.29 780.352 606.429C788.577 615.569 785.272 619.612 798.731 627.301C812.19 634.991 830.726 663.684 844.816 666.629L856.779 668.122L884.328 666.76C875.906 666.76 864.769 655.907 861.463 649.316C858.196 642.725 851.86 641.275 838.952 632.003C826.043 622.731 829.113 616.36 829.113 616.36C829.113 616.36 828.011 606.605 828.011 603.925C828.011 601.244 811.836 586.085 797.865 573.386L772.717 537.266L758.943 523.601H750.403Z" fill="#4E794D"/>
<path d="M847.924 591.709L797.864 573.386C811.835 586.085 828.01 601.244 828.01 603.925C828.01 606.605 829.112 616.36 829.112 616.36C829.112 616.36 826.043 622.731 838.951 632.003C851.859 641.275 858.195 642.725 861.462 649.316C864.768 655.907 875.905 666.76 884.327 666.76L905.736 665.706C905.028 665.706 900.896 665.486 896.881 661.048C892.513 656.171 886.177 656.17 881.612 651.029C877.007 645.888 872.521 647.47 861.541 635.211C850.561 622.951 863.233 622.248 866.303 622.248C869.333 622.248 862.603 595.488 856.07 592.72L856.031 592.676L847.924 591.709Z" fill="#97A753"/>
<path d="M847.925 591.71L856.032 592.677L856.071 592.721L862.014 593.424C862.014 593.424 867.917 616.493 876.142 621.634C884.328 626.731 856.465 624.182 868.901 633.322C881.377 642.506 887.949 650.196 887.949 650.196L905.659 656.787L920.732 657.885L959.772 635.212L936.788 622.337L930.57 612.45L903.888 600.323C903.809 600.279 903.77 600.279 903.77 600.279L891.884 594.874L859.299 584.152L847.925 591.71Z" fill="#97A753"/>
<path d="M862.011 593.426L856.069 592.723C862.602 595.491 869.331 622.251 866.301 622.251C863.231 622.251 850.559 622.954 861.539 635.214C872.519 647.473 877.005 645.891 881.61 651.032C886.175 656.173 892.511 656.173 896.88 661.051C900.894 665.489 905.026 665.709 905.735 665.709C905.813 665.709 905.853 665.709 905.853 665.709L916.36 665.181L920.729 657.887L905.656 656.789L887.946 650.198C887.946 650.198 881.374 642.508 868.898 633.324C856.462 624.184 884.325 626.733 876.14 621.636C867.914 616.495 862.011 593.426 862.011 593.426Z" fill="#567B85"/>
<path d="M891.883 594.876L903.768 600.28C903.768 600.28 903.808 600.281 903.886 600.324C905.697 600.808 926.988 606.916 927.854 607.838C928.719 608.805 943.596 609.156 953.867 608.19C964.139 607.223 968.822 602.829 978.228 597.556L974.529 593.689L908.058 592.459L891.883 594.876Z" fill="#819948"/>
<path d="M903.887 600.324L930.569 612.451L936.787 622.338L959.77 635.213L976.26 625.634L1004.16 600.719L1001.41 593.688L978.228 597.555C968.822 602.828 964.139 607.222 953.867 608.189C943.596 609.156 928.719 608.804 927.854 607.837C926.988 606.915 905.697 600.807 903.887 600.324Z" fill="#4E794D"/>
<path d="M719.549 727.706C717.581 727.091 714.63 729.683 710.694 732.891C706.838 736.099 702.036 739.922 696.251 742.031C684.602 746.293 667.719 758.948 663.114 764.045C662.681 764.529 662.091 765.1 661.383 765.759C654.535 771.911 636.314 784.434 629.348 790.234C624.586 794.189 607.191 808.074 592.275 819.323C582.988 826.31 574.644 832.286 570.945 834.175C569.843 834.746 568.269 835.405 566.301 836.065C551.071 841.513 513.566 850.214 513.566 850.214H567.521C577.872 846.962 587.199 842.831 595.581 838.262C631.355 818.62 650.363 790.102 660.989 782.369C674.094 772.834 698.691 755.653 718.369 757.19C727.145 757.894 738.754 759.256 753.788 756.356C743.32 750.863 736.236 744.096 736.236 744.096C736.236 744.096 729.191 743.569 727.42 739.175C725.61 734.781 723.485 728.849 719.549 727.706Z" fill="#4E794D"/>
<path d="M477.554 834.614C474.799 842.172 470.982 850.213 470.982 850.213H507.07C504.001 845.599 502.033 826.661 500.734 824.244C499.396 821.783 499.317 828.638 498.648 831.186C498.137 833.164 495.657 835.581 494.555 836.503C494.516 837.69 494.044 836.987 494.044 836.987C494.044 836.987 494.241 836.811 494.555 836.503C494.634 835.449 494.359 832.856 493.178 826.924C490.659 814.357 491.761 802.625 490.03 806.536C488.259 810.446 490.226 814.709 488.928 819.85C487.59 824.947 483.379 825.694 484.048 828.989C484.756 832.285 485.425 837.162 482.592 835.361C479.719 833.515 480.27 827.056 477.554 834.614Z" fill="#819948"/>
<path d="M569.371 828.861C568.702 832.332 568.033 835.496 566.301 836.067C568.269 835.408 569.843 834.749 570.945 834.178C574.645 832.288 582.988 826.312 592.276 819.325C589.914 815.59 586.766 816.909 584.916 813.393C583.027 809.834 581.847 801.529 581.06 799.332C580.312 797.135 579.997 817.041 578.777 818.359C577.596 819.721 572.126 818.886 570.591 823.632C570.079 825.258 569.725 827.103 569.371 828.861Z" fill="#819948"/>
<path d="M515.688 838.131L513.563 850.215C513.563 850.215 551.068 841.514 566.299 836.066C568.03 835.495 568.699 832.331 569.368 828.859C568.345 827.717 565.433 823.367 564.882 820.071C564.331 816.776 563.268 827.541 562.048 830.969C560.868 834.352 558.428 835.846 557.798 832.067C557.129 828.244 556.263 820.555 553.626 817.61C551.029 814.71 552.643 828.991 550.557 831.32C548.51 833.649 545.441 831.276 545.441 834.264C545.441 837.296 540.521 833.913 539.537 836.066C538.554 838.263 537.019 837.648 534.5 838.395C531.981 839.142 531.981 839.493 529.895 837.164C527.849 834.835 525.763 837.648 525.212 838.263C524.661 838.878 520.726 843.14 519.309 832.287C517.892 821.433 518.443 820.203 517.577 824.949C516.672 829.738 515.688 838.131 515.688 838.131Z" fill="#819948"/>
<path d="M678.7 746.471C676.889 746.471 675.354 748.975 673.623 750.865C671.891 752.798 661.383 757.763 661.383 765.761C662.092 765.102 662.682 764.53 663.115 764.047C667.719 758.95 684.603 746.295 696.252 742.033C702.037 739.923 706.838 736.101 710.695 732.893C709.357 725.599 707.547 718.48 706.72 721.864C705.933 725.247 702.982 727.796 700.187 730.916C697.393 734.035 694.127 733.684 694.127 736.408C694.127 739.176 690.663 737.682 689.837 730.916C689.011 724.149 688.066 711.494 688.066 714.086C688.066 716.635 687.397 739.528 683.934 739.528C680.51 739.528 680.51 746.471 678.7 746.471Z" fill="#819948"/>
<path d="M567.521 850.213H670.198C674.566 846.347 681.768 838.657 672.953 836.767C661.5 834.307 668.309 821.652 689.639 815.764C686.294 816.379 683.264 816.994 680.666 817.609C659.69 822.662 609.552 836.284 595.581 838.261C587.198 842.831 577.871 846.962 567.521 850.213Z" fill="#4F5D2B"/>
<path d="M824.743 850.214H890.347C922.933 845.336 956.818 773.581 1015.77 788.345C1003.57 781.446 989.679 777.14 973.544 776.129C970.12 775.91 966.657 775.866 963.154 775.954H963.115C916.636 782.764 870.867 841.689 824.743 850.214Z" fill="#4F5D2B"/>
<path d="M706.208 813.303C700.265 814.05 694.755 814.841 689.875 815.72C689.796 815.72 689.718 815.764 689.639 815.764C668.309 821.652 661.5 834.307 672.953 836.768C681.768 838.657 674.566 846.347 670.198 850.214H749.577C748.986 840.107 725.216 841.821 710.025 838.394C693.142 834.571 714.433 823.937 737.731 821.74C761.029 819.543 798.259 826.486 827.775 814.05V814.006C810.498 818.137 791.962 817.873 773.819 813.479C757.015 809.436 728.876 810.579 706.208 813.303Z" fill="#819948"/>
<path d="M756.739 781.623C748.317 781.623 718.447 798.672 706.207 813.304C728.876 810.58 757.014 809.437 773.819 813.48C791.962 817.874 810.498 818.138 827.774 814.007C833.599 812.645 839.305 810.756 844.815 808.383C848.082 806.933 852.214 805.175 857.015 803.154C858.983 801.045 861.62 798.189 864.965 794.454C874.489 783.82 889.916 766.243 907.94 757.192C925.965 748.14 931.868 731.486 954.497 702.178C970.121 681.921 993.616 685.128 1018.02 697.52C1013.92 693.258 1010.03 689.303 1006.45 685.744C993.459 672.869 976.93 665.311 959.574 664.476C944.541 663.729 927.46 663.993 920.731 668.123C919.393 668.958 917.976 669.617 916.362 670.189C898.417 682.756 878.424 697.432 870.238 709.867C862.013 722.303 840.368 737.682 824.98 750.513C809.553 763.343 790.191 771.385 779.722 772.835C769.214 774.329 765.948 781.623 756.739 781.623Z" fill="#4E794D"/>
<path d="M890.349 850.213H1070.79C1055.99 823.673 1038.91 801.351 1015.77 788.344C956.819 773.58 922.935 845.336 890.349 850.213Z" fill="#4E794D"/>
<path d="M857.016 803.153C852.215 805.174 848.083 806.932 844.816 808.382C839.307 810.754 833.6 812.644 827.776 814.006V814.05C798.259 826.485 761.03 819.542 737.732 821.74C714.434 823.937 693.143 834.57 710.026 838.393C725.217 841.821 748.987 840.107 749.577 850.213H824.745C870.869 841.689 916.639 782.764 963.117 775.953C924.628 776.656 881.81 792.739 857.016 803.153Z" fill="#4E794D"/>
<path d="M689.873 815.72C694.753 814.841 700.263 814.05 706.206 813.303C718.445 798.671 748.315 781.622 756.737 781.622C765.946 781.622 769.213 774.328 779.72 772.834C790.189 771.383 809.551 763.342 824.979 750.512C840.366 737.681 862.012 722.301 870.237 709.866C878.423 697.431 898.415 682.755 916.361 670.188C902.154 675.329 876.455 674.01 826.946 716.457C796.446 742.602 772.479 752.753 753.786 756.356C738.752 759.256 727.142 757.894 718.366 757.191C698.689 755.653 674.092 772.834 660.987 782.369C650.361 790.102 631.352 818.62 595.579 838.262C609.55 836.284 659.688 822.663 680.664 817.609C683.262 816.994 686.292 816.379 689.637 815.764C689.716 815.764 689.794 815.72 689.873 815.72Z" fill="#97A753"/>
<path d="M864.965 794.455C861.62 798.19 858.983 801.046 857.015 803.155C881.809 792.741 924.627 776.659 963.116 775.955H963.155C966.658 775.868 970.121 775.911 973.545 776.131C989.681 777.142 1003.57 781.448 1015.77 788.347C1038.91 801.353 1055.99 823.675 1070.79 850.216H1085.16C1058.04 792.126 1051.47 734.519 1029.19 709.605C1025.38 705.342 1021.64 701.3 1018.02 697.521C993.616 685.129 970.121 681.922 954.497 702.179C931.868 731.487 925.965 748.141 907.94 757.193C889.916 766.244 874.489 783.821 864.965 794.455Z" fill="#819948"/>
<path d="M1359.57 130.652V148.778L1365.38 182.44L1391.77 241.626V264.265L1394.25 289.345L1422.06 398.247L1427.94 402.464L1430.66 370.207L1433.01 316.866L1429.36 262.637L1410.88 212.329H1410.94L1359.57 130.652Z" fill="#A57C54"/>
<path d="M1451.24 325.156L1440.55 435.02L1443.02 443.897L1450.56 422.073L1470.1 407.054L1475.23 358.448L1485.24 336.253L1488.03 293.343L1481.84 292.603L1447.16 274.552L1451.24 325.156Z" fill="#A57C54"/>
<path d="M1545.08 400.762L1513.06 486.211L1528.88 495.607L1539.89 486.211V497.679L1547.74 493.166L1550.83 502.266L1559.11 509.22L1565.6 504.263L1540.2 454.991L1545.08 400.762Z" fill="#A88C4E"/>
<path d="M1371.25 677.312L1333.36 849.987H1818.63L1754.52 736.498L1723.61 648.533L1694.74 554.871L1672.8 549.1L1623.34 483.33L1611.66 424.958L1596.08 482.072L1589.65 505.525L1557.38 541.702L1545.7 571.295H1530.62L1468.8 626.338L1462.62 662.515L1431.03 690.481L1406.3 670.727L1371.25 677.312Z" fill="#4F5B56"/>
<path d="M1293.98 155.732L1276.79 175.856L1258.62 215.806V215.88L1259.3 235.929C1259.3 235.929 1258.93 280.319 1270.3 332.476C1281.62 384.708 1321.12 468.086 1321.12 468.086L1352.71 509.22L1345.47 470.158V412.599L1358.89 413.857L1366.12 404.831L1377.06 422.069L1394.25 289.345L1391.77 264.265V241.626L1365.38 182.44L1359.57 148.778V130.652L1350.29 135.609L1342.94 138.864L1335.52 142.194L1332.8 135.165L1318.03 140.122L1314.94 130.652L1296.7 140.936L1293.98 155.732Z" fill="#A88C4E"/>
<path d="M1244.52 274.923L1221.16 311.544L1202.98 319.312L1198.84 350.977L1170.34 373.985L1158.66 420.89L1128.43 424.959L1109.88 414.675L1070.38 424.959L904.834 849.988H1190.19L1206.38 578.694L1198.84 503.084L1227.34 553.17L1239.7 563.084L1255.16 537.19L1261.34 547.844C1261.34 547.844 1265.79 493.985 1265.79 477.56C1265.79 461.136 1255.16 282.321 1255.16 282.321L1258.62 215.885L1253.8 226.464L1244.52 274.923Z" fill="#A57C54"/>
<path d="M1410.87 212.328L1429.36 262.636L1433.01 316.865L1430.66 370.207L1427.94 402.463L1432.39 405.644L1440.55 435.015L1451.24 325.151L1447.16 274.547L1430.66 243.697L1410.94 212.328H1410.87Z" fill="#A88C4E"/>
<path d="M1508.98 295.93L1488.02 293.341L1485.24 336.251L1475.23 358.445L1470.1 407.052L1478.38 400.689L1484.25 417.557L1489.01 415.486L1505.77 464.758L1500.02 393.735L1516.15 307.841L1528.51 282.391L1542.24 207.743L1526.1 242.441L1508.98 295.93Z" fill="#A88C4E"/>
<path d="M1582.48 186.955V239.187L1592.93 282.392L1590.89 215.808L1589.34 213.293L1582.48 186.955Z" fill="#D0A754"/>
<path d="M1505.76 464.759L1513.06 486.214L1545.08 400.764L1549.16 355.931C1549.16 355.931 1547.8 284.02 1549.16 282.392C1550.52 280.765 1549.16 258.94 1549.16 258.94L1558.43 238.743V186.955H1551.88L1542.24 207.744L1528.51 282.392L1516.15 307.842L1500.02 393.736L1505.76 464.759Z" fill="#69645C"/>
<path d="M1341.76 126.066L1342.94 138.865L1350.29 135.61L1359.57 130.653L1410.94 212.329L1430.66 243.698L1447.16 274.549L1481.84 292.6L1389.12 110.974L1377.74 76.4238L1361.3 66.5841L1336.57 0L1333.05 44.0195L1336.63 124.216L1341.76 126.066Z" fill="#D0A754"/>
<path d="M1133.56 353.414L1109.88 414.671L1128.43 424.955L1158.66 420.886L1170.34 373.981L1198.84 350.972L1202.98 319.308L1221.16 311.54L1244.52 274.919L1253.8 226.46L1258.62 215.881V215.807L1276.79 175.856L1293.98 155.733L1296.7 140.936L1298.8 128.803L1292.31 118.668L1294.16 113.119L1283.72 92.1081L1290.27 63.181L1288.23 15.6842L1277.16 0L1259.61 38.1749C1259.61 38.1749 1260.84 60.5916 1259.61 62.0712C1258.43 63.4769 1245.2 105.573 1245.2 105.573L1242.11 160.69L1193.71 263.451L1133.56 353.414Z" fill="#69645C"/>
<path d="M1590.89 215.807L1592.93 282.391L1597.2 299.999L1611.66 424.955L1623.34 483.327L1672.8 549.097L1694.74 554.868L1723.61 648.53L1754.52 736.495L1818.63 849.984H1950.98L1891.88 743.079L1877.48 720.884H1864.43L1860.29 705.274L1792.97 617.309L1753.16 541.699L1705.75 468.53L1681.7 450.479L1619.2 316.423L1598.62 228.532L1590.89 215.807Z" fill="#D0A754"/>
<path d="M1258.62 215.885L1255.15 282.321C1255.15 282.321 1265.79 461.136 1265.79 477.56C1265.79 493.985 1261.34 547.844 1261.34 547.844L1255.15 537.19L1239.7 563.084L1227.34 553.17L1198.84 503.084L1206.38 578.694L1190.18 849.988H1333.35L1371.25 677.313L1406.3 670.728L1431.03 690.482L1462.62 662.516L1468.8 626.339L1530.62 571.296H1545.7L1557.38 541.703L1589.65 505.526L1596.08 482.073L1577.29 495.242L1565.6 504.268L1559.11 509.225L1550.83 502.271L1547.74 493.171L1539.89 497.684V486.216L1528.88 495.612L1513.06 486.216L1505.76 464.762L1489.01 415.489L1484.25 417.561L1478.38 400.693L1470.1 407.055L1450.56 422.074L1443.02 443.898L1440.55 435.021L1432.39 405.65L1427.94 402.468L1422.06 398.251L1394.24 289.349L1377.06 422.074L1366.12 404.836L1358.88 413.862L1345.47 412.604V470.162L1352.7 509.225L1321.11 468.091C1321.11 468.091 1281.61 384.713 1270.3 332.481C1258.93 280.323 1259.3 235.934 1259.3 235.934L1258.62 215.885Z" fill="#69645C"/>
<path d="M1303.01 534.591L1309.43 567.646C1309.43 567.646 1336.47 653.133 1338.47 661.16C1340.47 669.179 1344.88 696.272 1344.88 696.272L1340.56 692.151L1336.17 707.502L1328.92 704.824L1308.88 685.345L1321.8 720.96L1348.57 822.419L1416.96 831.275L1414.38 740.291L1430.7 730.94L1445.19 736.267L1457.2 717.076L1455.81 698.321L1479.28 660.62L1486.65 657.979L1488.74 641.481L1500.09 618.161L1500.37 605.577L1492.79 615.298L1488.19 621.75L1485.62 625.308L1480.73 623.362L1478.1 619.456L1474.82 623.037L1473.42 617.436L1469.19 623.954L1460.31 622.134L1454.13 612.931L1439.93 591.794L1437.86 593.636L1432.93 586.423L1429.66 590.98L1421.96 601.737L1420.94 613.715L1418.64 609.809L1411.07 596.891L1408.5 596.115L1405.12 595.079L1378.23 546.746L1386.05 614.588L1378.6 608.078L1376.17 613.752L1369.47 615.483L1376.49 643.596L1384.8 661.412L1364.34 646.844C1364.34 646.844 1334.86 613.027 1322.95 589.493C1311.03 566.004 1305.79 544.253 1305.79 544.253L1303.01 534.591Z" fill="#4F5B56"/>
<path d="M1332.8 135.166L1335.52 142.194L1342.94 138.865L1341.76 126.066L1336.63 124.216L1333.05 44.0195L1336.57 0H1277.16L1288.23 15.6842L1290.27 63.181L1283.72 92.108L1294.16 113.119L1292.31 118.668L1298.8 128.803L1296.7 140.936L1314.93 130.653L1318.03 140.123L1332.8 135.166Z" fill="#A57C54"/>
<path d="M1545.09 400.764L1540.2 454.993L1565.61 504.266L1577.29 495.24L1596.08 482.071L1611.66 424.956L1597.2 300L1592.93 282.392L1582.48 239.187V186.955H1558.44V238.743L1549.17 258.94C1549.17 258.94 1550.53 280.765 1549.17 282.392C1547.81 284.02 1549.17 355.931 1549.17 355.931L1545.09 400.764Z" fill="#A57C54"/>
<path d="M943.844 491.316L955.96 512.031L960.844 532.007L992.248 546.211L943.844 491.316Z" fill="#7D983F"/>
<path d="M1565.61 837.405L1529.07 814.989L1468.8 809.44L1400.8 778.663L1391.77 784.212L1331.75 737.307L1271.48 669.539L1261.71 672.572L1190.62 614.644L1116.44 565.964L1107.84 587.493L1067.29 631.734L1050.11 725.026L1054.25 739.378L1075.88 770.229L1070.38 776L1146.67 814.619L1165.52 833.928L1194.33 849.982H1603.32L1579.52 837.405H1565.61Z" fill="#96A74B"/>
<path d="M834.361 773.709L817.855 811.291L822.244 849.984H856.801L936.608 796.125L961.335 751.514L976.789 747.815L1005.16 698.468L1015.43 639.283L1055.61 615.904L1091.28 586.977L1056.66 583.648L992.244 546.213L960.84 532.008L955.957 512.033L943.84 491.318L927.088 443.451L901.062 577.359L894.881 669.171L900.815 699.43L879.179 721.625L843.881 744.707L834.361 758.912V773.709Z" fill="#485621"/>
<path d="M1624.71 796.128L1711.93 826.091H1750.38L1767.57 849.988H1911.11L1891.88 824.464L1882.61 826.091L1851.7 768.607L1803.3 723.774L1795.02 685.969L1771.03 704.834L1727.76 719.261L1672.8 763.65L1649.43 774.304L1624.71 796.128Z" fill="#467445"/>
<path d="M1055.61 615.902L1015.43 639.28L1005.17 698.466L976.792 747.813L961.338 751.512L936.611 796.123L856.804 849.982H1194.33L1165.52 833.928L1146.67 814.619L1070.38 776L1075.89 770.229L1054.25 739.378L1050.11 725.026L1067.29 631.734L1107.85 587.493L1116.44 565.964H1109.89L1103.52 577.061L1091.28 586.975L1055.61 615.902Z" fill="#467445"/>
<path d="M981.182 503.969L978.091 488.285L973.949 460.171L962.389 424.956V413.045L989.156 384.34L987.364 374.796L1001.27 331.072L1007.21 317.312H1002.08L986.931 342.761L980.44 346.461L974.258 344.019L941.927 358.816L925.051 401.577L931.48 410.603L927.091 443.452L943.844 491.318L992.247 546.213L1056.66 583.648L1036.08 550.8L981.182 503.969Z" fill="#467445"/>
<path d="M925.05 401.578L896.304 474.673L888.701 530.16L851.61 610.356L822.123 633.365L734.156 849.985H822.246L817.857 811.292L834.362 773.71V758.913L843.883 744.708L879.181 721.626L900.817 699.431L894.882 669.172L901.064 577.36L927.09 443.452L931.479 410.604L925.05 401.578Z" fill="#467445"/>
<path d="M1795.01 685.969L1803.3 723.774L1851.7 768.607L1882.61 826.091L1891.88 824.464L1911.11 849.988H1969.16L1900.85 776.819L1891.57 780.518L1828.33 713.934L1811.21 705.278L1795.01 685.969Z" fill="#7D983F"/>
<path d="M1001.27 331.072L987.362 374.796L989.155 384.34L962.387 413.045V424.956L973.947 460.171L978.089 488.285L981.18 503.969L1036.07 550.8L1056.66 583.648L1091.28 586.977L1103.52 577.064L1109.89 565.966H1116.44L1190.62 614.647L1261.71 672.575L1271.48 669.542L1331.75 737.309L1391.78 784.214L1400.8 778.666L1468.8 809.442L1529.07 814.991L1565.61 837.408H1579.52L1603.32 849.985H1767.57L1750.38 826.088H1711.93L1624.71 796.126L1378.11 719.628L1362.29 683.524L1262.7 625.522L1252.75 611.983L1242.79 618.938L1198.16 577.434L1143.89 486.213L1130.16 475.116L1109.89 443.452L1091.03 435.018L1082.44 416.3L1043.25 384.266L1013.76 346.461L1007.21 317.312L1001.27 331.072Z" fill="#7D983F"/>
<path d="M214.461 409.006L210.366 457.78L214.461 462.214L220.278 456.636L223.528 440.078L231.296 433.67L231.946 427.365L228.306 428.716L235.098 385.693V385.658L232.173 365.566L227.298 362.241L221.806 347.657L219.564 356.456L222.943 368.58L214.461 409.006Z" fill="#567B85"/>
<path d="M224.341 321.363L223.528 329.018L224.341 330.023L229.183 335.946L231.068 343.429L242.28 350.53L243.028 345.092L241.078 338.545L239.063 315.024L246.375 290.048L253.298 285.163L261.195 256.516C256.872 264.691 251.413 274.979 250.99 275.429C250.665 275.776 246.538 279.067 242.313 282.427L233.506 300.44L230.548 314.435L224.341 321.363Z" fill="#5A8895"/>
<path d="M267.045 291.019L264.25 318.074L272.928 352.402L275.625 359.919L277.25 411.603L284.595 427.746L280.207 451.648L297.334 547.256L319.239 802.453L317.809 862.727H344.328L327.754 693.335L303.444 482.027L305.719 442.78L291.745 329.609L284.595 321.815V271.932L290.152 248.411L287.195 246.853L280.207 244.358L276.795 248.411L267.045 291.019Z" fill="#5A8895"/>
<path d="M336.886 412.99L337.114 413.579L338.869 458.646L346.864 542.061L360.448 769.961L374.78 862.729H404.094C371.758 756.902 367.176 638.569 351.739 529.001C346.214 462.318 345.044 482.34 345.629 457.607C346.084 455.425 346.474 453.485 346.864 451.649C347.936 446.487 348.879 442.123 350.341 435.229C346.734 425.668 344.686 419.987 342.021 410.877L336.886 412.99Z" fill="#567B85"/>
<path d="M310.919 255.236C311.374 250.698 311.666 248.134 312.284 243.25C308.254 250.143 306.369 253.469 302.664 260.085C303.119 257.556 303.347 256.275 303.834 253.746C300.909 256.205 299.447 257.418 296.522 259.843C297.237 255.824 297.594 253.815 298.342 249.762L294.637 252.118C294.604 252.118 294.604 252.118 294.604 252.153C293.987 253.33 293.305 254.612 292.525 256.067L296.749 268.26V273.456L304.614 287.902L309.196 319.494L324.634 360.197L325.576 381.847L336.886 412.989L342.021 410.876C341.436 408.763 340.786 406.476 340.071 403.913C343.45 374.053 343.028 367.436 341.468 348.349C339.941 347.622 339.193 347.206 337.698 346.34C337.503 345.336 337.308 344.366 337.113 343.43C335.293 334.389 334.188 328.362 332.043 317.831C329.931 315.857 328.858 314.852 326.746 312.912C323.399 308.201 321.676 305.915 318.231 301.689C318.101 292.751 318.036 288.213 318.069 279.865C319.206 278.306 319.759 277.544 320.929 275.985C318.751 270.443 317.679 268.122 315.599 263.341C317.744 261.021 318.849 259.843 321.059 257.453C321.839 252.291 322.294 249.624 323.269 244.324C329.281 226.068 333.343 215.988 339.096 198.044C338.088 198.252 337.601 198.356 336.593 198.564C331.003 209.025 327.883 214.533 322.034 225.202C317.256 237.811 314.039 246.056 310.919 255.236Z" fill="#567B85"/>
<path d="M355.637 347.621H355.605C355.702 349.942 355.767 351.986 355.897 354.688C357.945 357.147 359.017 358.152 361.032 360.23C360.545 362.794 360.382 363.694 359.797 366.223C360.967 376.788 359.797 386.834 357.75 407.341C362.82 412.468 365.062 415.655 369.644 422.687C369.222 437.375 368.897 449.499 368.994 460.272C369.027 460.307 369.092 460.342 369.157 460.376C369.157 460.376 374.649 459.06 379.264 460.515C375.397 435.504 374.584 420.851 372.504 399.028C373.642 395.217 374.162 393.381 375.169 389.883C374.357 377.932 374.357 372.736 372.114 366.5C367.987 360.75 363.08 356.489 355.637 347.621Z" fill="#567B85"/>
<path d="M394.897 310.211C394.539 323.721 393.954 331.134 393.272 344.332C397.627 357.08 398.992 363.87 404.484 373.638C405.329 378.038 405.914 379.319 407.506 383.407C407.506 383.407 422.293 431.072 412.414 429.548C403.802 428.197 406.531 445.691 407.344 450.09C407.344 450.125 407.344 450.159 407.344 450.159C412.024 458.196 417.451 466.336 424.113 475.135C425.413 475.239 426.063 475.308 427.266 475.551C428.078 470.043 428.436 467.202 429.118 461.556C430.906 460.378 432.401 459.443 433.701 458.612C430.646 451.753 429.021 448.497 425.478 442.504C425.316 440.044 425.251 438.797 425.121 436.372C426.583 433.67 427.298 432.354 428.598 429.86C427.461 425.322 426.876 423.105 425.738 418.879C423.951 407.621 423.073 402.425 421.448 394.284C421.286 389.954 421.254 388.014 421.189 384.931C420.604 381.883 420.214 381.086 419.889 378.176C417.061 372.218 416.119 368.338 415.014 359.574C408.644 346.411 407.181 337.785 401.559 322.786C399.187 317.832 397.139 313.745 395.059 310.107L394.897 310.211Z" fill="#B4D6DE"/>
<path d="M383.618 462.872C385.275 464.015 387.387 465.574 389.565 467.202C395.187 471.463 401.265 476.278 401.265 476.278C401.265 476.278 407.764 473.368 417.287 474.096C419.431 474.2 421.706 474.546 424.111 475.135C417.449 466.336 412.022 458.196 407.342 450.159C407.342 450.159 407.342 450.124 407.342 450.09C398.112 434.224 391.775 418.913 384.235 400.519C383.52 395.531 383.163 393.141 382.448 388.741C378.775 377.587 375.72 371.49 372.113 366.502C374.355 372.737 374.355 377.933 375.168 389.884C374.16 393.383 373.64 395.219 372.503 399.029C374.583 420.853 375.395 435.506 379.263 460.516C380.108 460.759 380.888 461.105 381.635 461.556C382.188 461.902 382.838 462.352 383.618 462.872Z" fill="#B4D6DE"/>
<path d="M337.113 343.429C337.308 344.364 337.503 345.334 337.698 346.339C339.193 347.205 339.94 347.62 341.468 348.348C343.028 367.435 343.45 374.051 340.07 403.911C340.785 406.475 341.435 408.761 342.02 410.874C344.685 419.985 346.732 425.666 350.34 435.226C348.877 442.12 347.935 446.485 346.862 451.646C350.892 451.993 352.842 452.408 356.71 453.621C361.715 455.734 364.184 457.189 368.994 460.272C368.897 449.498 369.222 437.374 369.644 422.687C365.062 415.655 362.819 412.468 357.75 407.341C359.797 386.834 360.967 376.788 359.797 366.222C360.382 363.694 360.545 362.793 361.032 360.23C359.017 358.151 357.945 357.147 355.897 354.687C355.767 351.985 355.702 349.941 355.605 347.62C355.572 345.888 355.507 344.018 355.442 341.593C357.457 334.873 358.53 331.062 360.642 323.476C360.252 316.652 360.057 313.118 359.635 306.329C360.837 296.664 361.455 291.814 362.592 283.431C364.282 282.635 365.127 282.254 366.784 281.492C370.002 278.028 371.562 276.399 374.682 273.455C373.577 262.994 372.894 259.876 372.472 250.488C370.229 250.488 369.092 250.488 366.849 250.488C366.102 254.022 365.744 255.788 365.094 259.218C363.242 260.534 362.299 261.192 360.447 262.509C359.797 267.878 359.667 270.164 359.082 276.919C349.722 301.549 344.848 323.13 337.113 343.429Z" fill="#B4D6DE"/>
<path d="M221.807 347.656L227.299 362.24L232.174 365.566L235.099 385.657L238.804 362.136L241.046 359.815L242.281 350.532L231.069 343.43L229.184 335.948L224.341 330.024L223.529 329.02L216.444 320.221L214.462 312.115L213.617 316.722V330.752L218.199 338.13L221.807 347.656Z" fill="#B4D6DE"/>
<path d="M152.388 568.629L164.868 529.658L173.253 532.36L172.44 486.635L178.388 458.645V438.45L185.44 406.407V378.175L191.615 351.19L199.512 316.723V296.908L197.627 300.268L189.307 303.144L181.735 318.351L175.138 339.239L176.763 345.093L161.618 411.603L163.048 434.882L159.441 481.646L161.618 496.473L153.298 547.464L152.388 568.629Z" fill="#4B6A64"/>
<path d="M138.12 790.708L120.018 862.726H210.593L223.527 793.999L199.51 693.334L212.348 509.15L228.207 463.944L231.294 433.668L223.527 440.076L220.277 456.635L214.46 462.212L210.365 457.778L203.118 471.634L199.51 521.828L188.883 578.639L187.973 663.023L175.136 697.387L169.546 695.689L143.547 751.634L138.12 790.708Z" fill="#6B9A92"/>
<path d="M75.2033 832.104L60.8386 862.727H78.5506L123.139 788.873V775.017L120.832 762.615L112.317 741.762L104.647 722.017V737.986L75.2033 832.104Z" fill="#465355"/>
<path d="M29.9645 862.729H46.2466L62.8537 803.043L71.3359 742.803L78.1932 695.692L75.2033 666.975L78.5506 632.715L91.9077 605.973L105.622 555.155L107.442 550.825L123.692 512.062L126.584 477.803L134.352 456.637V413.717L139.389 362.138L149.334 345.094L154.208 316.343L142.996 325.176C142.996 325.176 128.762 358.085 126.389 360.579C124.049 363.108 119.89 371.387 119.89 371.387L104.387 420.646C104.387 420.646 103.997 442.573 103.997 447.596C103.997 452.584 98.9601 480.678 98.9601 480.678L98.7001 482.548V482.583L97.9201 487.779L94.0853 514.556L83.0681 550.825L70.6209 622.912L57.6212 664.273L55.2489 677.298V677.332L48.5866 713.913L50.9265 776.266L48.5866 790.33L29.9645 862.729Z" fill="#4B6A64"/>
<path d="M14.8197 828.71L0.000144958 862.727H29.9642L48.5862 790.328L50.9261 776.264L48.5862 713.911L55.2485 677.33V677.296L53.8185 648.302L62.3007 599.805L81.8002 540.708L97.9198 487.777L98.6997 482.581L89.5675 501.46L79.1029 504.751L71.3356 505.686L55.9959 517.984C55.9959 520.235 47.6762 578.432 47.6762 578.432L41.8915 599.216L34.6766 705.077H22.392C22.392 705.077 15.5346 746.646 15.5346 752.431C15.5346 758.181 14.8197 828.71 14.8197 828.71Z" fill="#567B85"/>
<path d="M62.8536 803.04L46.2464 862.726H60.8384L75.2031 832.104L104.647 737.985V722.016L89.3727 682.56L88.4951 668.115L100.227 618.475L107.442 550.822L105.622 555.152L91.9075 605.97L78.5504 632.713L75.2031 666.972L78.193 695.689L71.3358 742.8L62.8536 803.04Z" fill="#6B9A92"/>
<path d="M123.139 788.872L78.5505 862.726H120.019L138.121 790.708L143.549 751.634L169.548 695.689L175.138 697.386L187.975 663.023L188.885 578.638L199.512 521.828L203.119 471.634L198.569 459.648V419.257L189.372 390.817L192.882 377.1L191.615 351.188L185.44 378.173V406.406L178.388 438.448V458.644L172.44 486.633L173.253 532.359L164.868 529.657L152.388 568.627V568.662L146.993 585.497L116.119 680.066L117.192 742.973L120.832 762.615L123.139 775.016V788.872Z" fill="#567B85"/>
<path d="M212.348 509.15L199.511 693.334L223.528 794L210.593 862.727H268.247L273.381 794L252.257 618.857L229.508 555.222L226.42 481.646L228.208 463.944L212.348 509.15Z" fill="#567B85"/>
<path d="M257.393 319.321L248.553 385.311C248.553 385.311 248.553 430.482 256.125 451.648C263.697 472.779 278.874 548.988 278.874 548.988L297.334 772.766V862.728H317.808L319.238 802.453L297.334 547.256L280.207 451.648L284.594 427.746L277.249 411.603L275.625 359.92L272.927 352.403L264.25 318.074L267.045 291.02L260.382 306.885L257.393 319.321Z" fill="#567B85"/>
<path d="M284.593 271.931V321.813L291.743 329.607L305.718 442.778L303.443 482.026L327.752 693.333L344.327 862.726H365.061L349.007 697.074L333.05 492.418L330.06 461.172L319.237 431.52L315.597 398.022L311.73 392.722L303.443 335.08L291.743 320.67L289.988 279.656L284.593 271.931Z" fill="#567B85"/>
<path d="M345.626 457.607C345.041 482.34 346.211 462.318 351.736 529.001C367.173 638.569 371.755 756.901 404.092 862.728H426.809C421.446 830.859 418.099 798.574 414.297 766.497C398.632 690.183 385.893 613.316 371.203 536.795C370.228 503.332 370.261 501.288 371.17 493.079C369.643 482.825 369.058 472.433 368.993 460.274C364.183 457.191 361.713 455.736 356.708 453.623C352.841 452.411 350.891 451.995 346.861 451.648C346.471 453.484 346.081 455.424 345.626 457.607Z" fill="#6B9A92"/>
<path d="M383.62 462.873C385.375 488.091 386.512 492.837 390.77 512.894C396.197 545.525 399.869 578.469 403.899 611.343C410.107 648.547 416.476 685.716 422.944 722.885C429.996 769.581 436.171 816.761 446.896 862.729H460.123V860.131C446.44 814.059 439.226 765.77 430.549 718.486C429.021 705.877 428.274 699.503 426.746 686.79C420.084 656.964 416.736 641.549 410.432 613.386C406.532 578.018 404.744 561.564 402.079 539.81C400.779 531.531 400.194 527.997 399.122 522.593C398.309 515.215 398.147 515.042 397.724 511.301C393.857 499.038 392.07 488.507 389.437 467.376L389.567 467.203C387.39 465.575 385.277 464.016 383.62 462.873Z" fill="#6B9A92"/>
<path d="M433.7 458.611C432.4 459.442 430.905 460.377 429.117 461.555C428.435 467.201 428.077 470.042 427.265 475.55C426.062 475.307 425.412 475.238 424.112 475.134C421.707 474.545 419.432 474.199 417.287 474.095L417.255 474.684C421.545 485.665 423.982 490.445 427.947 499.868C429.832 512.823 430.84 516.876 431.847 524.462C429.507 529 428.955 536.102 428.207 555.5C430.255 569.53 431.425 578.225 433.992 597.138C447.382 655.785 461.779 713.808 479.458 771.207C487.94 801.691 495.61 833.837 508.87 862.728H552.971C550.566 856.077 547.349 846.862 542.929 833.768C515.467 784.059 495.22 731.44 476.501 677.47C472.828 659.18 471.041 650.138 467.824 633.268C467.596 632.645 467.368 632.056 467.174 631.467C464.021 622.842 462.364 618.061 459.374 609.332C455.376 585.949 453.654 575.384 451.346 559.934C448.032 524.393 451.281 536.032 451.021 515.075C449.657 506.934 448.909 502.535 447.447 493.494C445.887 478.113 445.009 469.488 443.384 453.38C439.907 455.147 437.632 456.22 433.7 458.611Z" fill="#6B9A92"/>
<path d="M419.887 378.174C420.212 381.084 420.602 381.881 421.187 384.929C421.252 388.012 421.284 389.952 421.447 394.282C423.072 402.423 423.949 407.619 425.736 418.877C426.874 423.103 427.459 425.32 428.596 429.858C427.296 432.352 426.581 433.668 425.119 436.37C425.249 438.795 425.314 440.042 425.476 442.502C429.019 448.495 430.644 451.751 433.699 458.61C437.631 456.219 439.906 455.146 443.383 453.379C442.571 441.809 442.181 435.989 441.531 425.563C443.318 415.69 444.293 409.766 445.788 404.501C445.073 399.028 444.586 394.836 444.293 390.229C443.058 389.259 442.441 388.809 441.141 387.874C440.166 386.349 439.679 385.587 438.671 384.063C435.291 382.678 433.536 382.054 429.149 381.396C428.434 380.218 428.076 379.594 427.394 378.313C424.697 378.036 423.202 378.001 419.887 378.174Z" fill="#4B6A64"/>
<path d="M55.9952 517.983L71.3348 505.685L79.1021 504.75L89.5667 501.459L98.6989 482.58V482.545L98.959 480.675L77.9971 489.716C77.9971 489.716 55.9952 515.696 55.9952 517.983Z" fill="#B4D6DE"/>
<path d="M246.376 290.05L239.064 315.026L241.079 338.547L243.029 345.094L245.109 329.609L250.081 319.321H257.394L260.384 306.885L267.046 291.02L276.796 248.412L280.208 244.359L275.268 242.627L272.571 245.606L266.428 246.576C266.428 246.576 264.088 251.079 261.196 256.518L253.299 285.166L246.376 290.05Z" fill="#B4D6DE"/>
<path d="M298.341 245.12C297.008 247.58 295.903 249.658 294.636 252.118L298.341 249.762C297.593 253.815 297.236 255.824 296.521 259.843C299.446 257.418 300.908 256.205 303.833 253.746C303.346 256.275 303.118 257.556 302.663 260.085C306.368 253.469 308.253 250.143 312.283 243.25C311.665 248.134 311.373 250.697 310.918 255.235C314.038 246.056 317.255 237.811 322.033 225.202C327.883 214.533 331.002 209.025 336.592 198.563C334.61 197.524 333.57 197.005 331.555 196C329.865 199.845 328.987 201.785 327.2 205.734C322.293 211.38 319.823 214.186 314.98 219.763C314.85 222.916 314.785 224.509 314.623 227.696C308.838 233.204 306.011 235.906 300.453 241.171C299.673 242.626 298.958 243.908 298.341 245.12Z" fill="#B4D6DE"/>
<path d="M344.36 217.756C346.147 223.125 346.992 225.896 348.649 231.404C351.217 232.374 352.517 232.825 355.117 233.794C355.442 238.055 355.572 240.168 355.962 244.394C357.262 244.706 357.912 244.879 359.212 245.191C361.422 250.942 362.591 253.782 365.094 259.221C365.744 255.791 366.101 254.025 366.849 250.491C364.964 245.538 364.086 243.009 362.331 237.917C360.707 232.236 359.927 229.395 358.269 223.749C352.744 221.324 349.982 220.111 344.36 217.756Z" fill="#B4D6DE"/>
<path d="M62.2992 599.805L53.817 648.302L55.247 677.296L57.6193 664.271L70.6189 622.91L83.0661 550.823L94.0834 514.554L97.9182 487.777L81.7986 540.708L62.2992 599.805Z" fill="#465355"/>
<path d="M467.174 631.466C467.369 632.055 467.596 632.644 467.824 633.267C471.041 650.137 472.829 659.178 476.501 677.469C495.22 731.439 515.467 784.058 542.929 833.767C547.349 846.861 550.566 856.075 552.971 862.726H569.156C557.099 825.869 564.086 851.364 551.866 814.576L546.439 803.595L539.127 795.801L525.867 746.75L522.065 748.17L519.107 734.903L513.127 667.631L501.07 641.65L494.44 644.768L487.421 642.516L482.806 644.768L478.483 635.034C477.768 633.129 477.118 631.189 476.534 629.249L467.174 631.466Z" fill="#5A8895"/>
<path d="M379.264 460.518C374.649 459.063 369.157 460.379 369.157 460.379C369.092 460.344 369.027 460.31 368.994 460.275C369.059 472.434 369.644 482.826 371.171 493.08C370.262 501.29 370.229 503.333 371.204 536.796C385.894 613.317 398.633 690.185 414.298 766.498C418.1 798.575 421.447 830.86 426.81 862.729H446.894C436.17 816.761 429.995 769.581 422.942 722.885C416.475 685.716 410.105 648.547 403.898 611.343C399.868 578.469 396.196 545.526 390.768 512.894C386.511 492.837 385.374 488.092 383.619 462.873C382.839 462.354 382.189 461.903 381.636 461.557C380.889 461.106 380.109 460.76 379.264 460.518Z" fill="#567B85"/>
<path d="M389.566 467.202L389.436 467.375C392.069 488.506 393.856 499.037 397.724 511.3C398.146 515.041 398.309 515.214 399.121 522.592C400.194 527.996 400.779 531.53 402.079 539.809C404.743 561.563 406.531 578.017 410.431 613.385C416.736 641.548 420.083 656.963 426.745 686.789C428.273 699.502 429.02 705.876 430.548 718.485C439.225 765.769 446.44 814.058 460.122 860.13V862.728H508.87C495.611 833.838 487.941 801.692 479.459 771.208C461.779 713.808 447.382 655.785 433.993 597.139C431.425 578.225 430.255 569.53 428.208 555.501C428.955 536.102 429.508 529.001 431.848 524.463C430.84 516.877 429.833 512.824 427.948 499.868C423.983 490.446 421.545 485.666 417.256 474.684L417.288 474.096C407.766 473.368 401.266 476.278 401.266 476.278C401.266 476.278 395.189 471.463 389.566 467.202Z" fill="#567B85"/>
<path d="M441.531 425.561C442.181 435.988 442.571 441.808 443.383 453.378C445.008 469.486 445.886 478.111 447.446 493.492C448.908 502.533 449.656 506.932 451.02 515.073C451.28 536.03 448.031 524.391 451.345 559.932C453.653 575.382 455.375 585.947 459.373 609.33C462.363 618.059 464.02 622.84 467.172 631.465L476.532 629.248C467.595 600.081 469.967 568.835 466.458 559.309C462.33 527.093 458.69 494.843 454.92 462.558C452.45 449.082 451.28 442.466 449.168 430.654C447.706 418.633 446.601 410.77 445.788 404.5C444.293 409.765 443.318 415.689 441.531 425.561Z" fill="#5A8895"/>
<path d="M100.226 618.478L88.4937 668.118L89.3712 682.563L104.646 722.019L112.316 741.764L120.83 762.617L117.19 742.976L116.118 680.069L146.992 585.5L152.387 568.665V568.63L153.297 547.465L161.616 496.474L159.439 481.648L163.046 434.883L161.616 411.604L176.761 345.094L175.136 339.24L181.733 318.352L173.349 319.876L172.699 325.557L166.491 328.467L160.707 328.086L155.929 322.093L154.207 316.343L149.332 345.094L139.387 362.138L134.35 413.717V456.637L126.583 477.803L123.69 512.062L107.441 550.825L100.226 618.478Z" fill="#465355"/>
<path d="M192.881 377.101L189.371 390.819L198.568 419.259V459.65L203.118 471.635L210.365 457.779L214.46 409.005L222.942 368.58L219.563 356.455L221.805 347.657L218.198 338.13L213.615 330.752V316.723L209.455 307.959L203.865 306.019L199.511 296.908V316.723L191.613 351.19L192.881 377.101Z" fill="#5A8895"/>
<path d="M215.858 304.496L214.461 312.117L216.443 320.223L223.528 329.021L224.34 321.366L230.548 314.438L233.505 300.443L242.312 282.43C237.632 286.102 232.823 289.877 232.823 289.877L229.41 298.711L215.858 304.496Z" fill="#B4D6DE"/>
<path d="M242.28 350.531L241.045 359.815L238.803 362.136L235.098 385.657V385.692L228.306 428.715L231.945 427.364L231.295 433.669L228.208 463.945L226.421 481.646L229.508 555.223L252.257 618.857L273.382 794L268.247 862.727H297.333V772.765L278.874 548.987C278.874 548.987 263.697 472.778 256.125 451.647C248.552 430.482 248.553 385.311 248.553 385.311L257.392 319.32H250.08L245.108 329.609L243.028 345.093L242.28 350.531Z" fill="#4B6A64"/>
<path d="M290.151 248.411L284.594 271.932L289.989 279.657L291.743 320.671L303.443 335.082L311.73 392.724L315.598 398.024L319.238 431.521L330.06 461.173L333.05 492.419L349.007 697.076L365.061 862.727H374.779L360.446 769.96L346.862 542.059L338.867 458.645L337.112 413.577L336.885 412.988L325.575 381.846L324.632 360.196L309.195 319.493L304.613 287.901L296.748 273.456V268.26L292.523 256.067C293.303 254.612 293.986 253.33 294.603 252.152C294.603 252.118 294.603 252.118 294.636 252.118C295.903 249.658 297.008 247.58 298.341 245.12L290.151 248.411Z" fill="#5A8895"/>
<path d="M315.599 263.341C317.679 268.122 318.752 270.443 320.929 275.985C319.759 277.544 319.207 278.306 318.069 279.865C318.037 288.213 318.102 292.751 318.232 301.689C321.676 305.915 323.399 308.201 326.746 312.912C328.859 314.852 329.931 315.857 332.044 317.831C334.189 328.362 335.294 334.389 337.114 343.43C344.848 323.131 349.723 301.55 359.083 276.921C359.668 270.166 359.798 267.879 360.448 262.51C362.3 261.194 363.243 260.536 365.095 259.219C362.593 253.781 361.423 250.94 359.213 245.19C357.913 244.878 357.263 244.705 355.963 244.393C355.573 240.167 355.443 238.054 355.118 233.793C352.518 232.823 351.218 232.373 348.651 231.403C346.993 225.895 346.148 223.124 344.361 217.754C342.541 209.614 341.533 205.63 339.096 198.044C333.344 215.988 329.281 226.068 323.269 244.324C322.294 249.624 321.839 252.291 321.059 257.453C318.849 259.843 317.744 261.021 315.599 263.341Z" fill="#5A8895"/>
<path d="M372.114 366.502C375.721 371.49 378.776 377.587 382.448 388.741C383.163 393.14 383.521 395.53 384.236 400.519C391.776 418.913 398.113 434.224 407.343 450.089C406.53 445.69 403.8 428.196 412.412 429.547C422.292 431.072 407.505 383.406 407.505 383.406C405.913 379.319 405.328 378.037 404.483 373.638C398.99 363.869 397.625 357.079 393.271 344.332C393.953 331.134 394.538 323.721 394.896 310.211L395.058 310.107C390.963 302.971 386.673 297.463 379.523 290.223C377.866 282.671 376.891 279.207 374.681 273.457C371.561 276.401 370.001 278.03 366.784 281.494C365.126 282.256 364.281 282.637 362.592 283.434C361.454 291.817 360.837 296.666 359.634 306.331C360.057 313.12 360.252 316.654 360.642 323.478C358.529 331.064 357.457 334.875 355.442 341.595C355.507 344.02 355.572 345.89 355.604 347.622H355.637C363.079 356.49 367.986 360.751 372.114 366.502Z" fill="#5A8895"/>
<path d="M135.067 811.977L98.9604 863.626H130.907L164.316 809.309L188.495 796.596L206.922 760.016L212.35 706.496L205.135 731.16L179.851 756.552L154.209 774.669L148.781 792.37L135.067 811.977Z" fill="#485621"/>
<path d="M130.907 863.627H161.846L176.958 845.476L214.494 823.167L237.244 773.493L266.135 744.256L271.27 728.945L277.64 716.786L280.175 721.809C280.175 721.809 282.027 696.556 282.027 688.831C282.027 681.106 277.64 597.172 277.64 597.172L279.07 565.961L277.088 570.949L273.253 593.708L263.633 610.89L256.158 614.527L254.468 629.388L242.736 640.196L237.926 662.192L217.842 687.688L212.35 706.428V706.498L206.922 760.017L188.495 796.598L164.316 809.311L130.907 863.627Z" fill="#7D983F"/>
<path d="M148.782 777.338V792.372L154.21 774.671L179.851 756.553L205.136 731.162L212.351 706.498V706.429L217.843 687.688L237.927 662.193L225.48 664.132L217.843 659.317L201.593 664.132L198.993 689.593L166.494 743.875L148.782 777.338Z" fill="#485621"/>
<path d="M161.845 863.627H224.958L236.626 845.684L253.135 837.578L258.01 817.382L269.677 810.454L316.508 760.225L327.753 740.896V719.384L320.603 713.461L317.776 703.692L304.776 684.397C304.776 684.397 288.527 645.219 283.847 620.728C279.199 596.202 279.329 575.383 279.329 575.383L279.069 565.961L277.639 597.172C277.639 597.172 282.027 681.106 282.027 688.831C282.027 696.556 280.174 721.809 280.174 721.809L277.639 716.786L271.27 728.945L266.135 744.256L237.243 773.493L214.494 823.167L176.957 845.476L161.845 863.627Z" fill="#485621"/>
<path d="M227.592 630.565L217.843 659.317L225.48 664.132L237.927 662.192L242.737 640.195L254.469 629.387L256.159 614.526L263.634 610.889L273.254 593.708L277.089 570.949L279.071 565.96L286.546 547.22L293.631 537.763L294.736 530.8L295.581 525.119L292.948 520.339L293.696 517.741L289.406 507.903L292.103 494.289L291.258 472.015L286.676 464.637L279.494 482.581C279.494 482.581 279.981 493.077 279.494 493.769C278.974 494.428 273.546 514.207 273.546 514.207L272.279 540.049L252.324 588.304L227.592 630.565Z" fill="#467445"/>
<path d="M224.96 863.629H297.108L300.813 854.034L307.053 850.881L327.754 819.393L339.552 811.911L353.949 798.713L358.368 779.556L363.016 775.642L365.583 758.668L360.676 753.888C360.676 753.888 351.641 757.144 350.829 756.278C350.016 755.412 341.762 746.648 341.762 746.648L327.754 740.897L316.51 760.227L269.679 810.456L258.011 817.384L253.137 837.579L236.627 845.685L224.96 863.629Z" fill="#7D983F"/>
<path d="M286.546 547.222L279.071 565.963L279.331 575.385C279.331 575.385 279.201 596.204 283.848 620.729C288.528 645.22 304.778 684.399 304.778 684.399L317.777 703.693L314.82 685.369V658.349L320.345 658.903L323.302 654.677L327.82 662.783L334.904 600.465L333.864 588.687V578.087L323.01 550.305L320.605 534.474V525.987L316.802 528.308L313.78 529.832L310.725 531.391L309.588 528.1L303.51 530.421L302.243 525.987L294.736 530.802L293.631 537.765L286.546 547.222Z" fill="#467445"/>
<path d="M286.674 464.637L291.256 472.015L292.101 494.289L289.404 507.903L293.693 517.741L292.946 520.339L295.578 525.119L294.733 530.8L302.241 525.985L303.508 530.419L309.586 528.098L310.723 531.389L313.778 529.83L313.29 523.803L311.178 522.937L309.683 485.317L311.145 464.637H286.674Z" fill="#7D983F"/>
<path d="M300.812 854.031L297.108 863.627H306.597L329.802 841.353L350.829 816.793L361.196 812.463L380.988 820.257L432.434 836.711L468.735 807.717L480.89 798.918L470.457 769.093L458.595 725.099L449.561 722.397L429.184 691.532L424.374 664.132L417.971 690.909L415.339 701.959L402.047 718.933L397.237 732.824H391.03L365.583 758.666L363.016 775.64L358.368 779.554L353.948 798.71L339.551 811.908L327.754 819.391L307.052 850.879L300.812 854.031Z" fill="#467445"/>
<path d="M329.803 841.354L306.598 863.628H428.112L417.973 855.487L400.196 852.404L356.972 833.352L342.867 832.382L329.803 841.354Z" fill="#7D983F"/>
<path d="M311.146 464.637L309.683 485.317L311.178 522.937L313.291 523.803L313.778 529.83L316.801 528.306L320.603 525.985L341.76 564.298L341.792 564.367L349.885 579.055L356.677 593.5L370.944 601.987L332.758 516.736L328.11 500.524L321.318 495.883L311.146 464.637Z" fill="#96A74B"/>
<path d="M314.821 658.348V685.368L317.778 703.693L320.606 713.461L327.755 719.385V740.897L341.762 746.647C341.762 746.647 350.017 755.411 350.83 756.277C351.642 757.143 360.677 753.887 360.677 753.887L365.584 758.667L391.031 732.825H397.238L402.048 718.935L415.34 701.961L417.973 690.91L410.238 697.111L405.428 701.337L402.763 703.693L399.351 700.402L398.083 696.141L394.833 698.289V692.885L390.316 697.319L383.816 692.885L380.794 682.805V682.77L373.904 659.699L371.922 660.669L369.517 652.736L366.104 655.716V655.75L358.077 662.782L354.957 673.001L353.95 668.844L350.602 655.057L348.75 653.568L346.345 651.593L334.905 600.464L327.82 662.782L323.303 654.676L320.346 658.903L314.821 658.348Z" fill="#485621"/>
<path d="M320.605 525.987V534.474L323.01 550.305L333.865 578.087V588.687L334.905 600.465L346.345 651.594L348.75 653.569L349.887 638.431L350.83 613.385L349.335 587.925L341.795 564.369L341.762 564.3L320.605 525.987Z" fill="#7D983F"/>
<path d="M350.828 816.792L329.801 841.352L342.866 832.38L356.97 833.35L400.194 852.402L417.971 855.486L428.111 863.626H506.336L477.932 845.301H474.682L451.023 836.71H432.433L380.987 820.256L361.195 812.462L350.828 816.792Z" fill="#96A74B"/>
<path d="M349.887 579.056L341.794 564.368L349.334 587.924L350.829 613.385L349.887 638.43L348.749 653.568L350.602 655.057L353.949 668.844L358.369 617.299L356.679 593.501L349.887 579.056Z" fill="#467445"/>
<path d="M358.369 617.298L353.95 668.843L354.957 673L358.077 662.781L366.104 655.749V655.715L368.217 632.921L372.344 622.494L373.481 602.368V602.333L370.947 601.987L356.679 593.5L358.369 617.298Z" fill="#7D983F"/>
<path d="M368.217 632.921L366.104 655.714L369.517 652.735L371.922 660.668L373.904 659.698L380.794 682.768L378.421 649.479L385.084 609.123L390.186 597.206L395.808 562.185L389.179 578.466L382.126 603.545L373.481 602.333V602.368L372.344 622.494L368.217 632.921Z" fill="#485621"/>
<path d="M385.082 609.122L378.42 649.478L380.792 682.767V682.802L383.815 692.883L396.977 652.769L398.667 631.707C398.667 631.707 398.082 597.967 398.667 597.205C399.219 596.443 398.667 586.19 398.667 586.19L402.469 576.733V552.415H399.772L395.807 562.149V562.184L390.185 597.205L385.082 609.122Z" fill="#467445"/>
<path d="M396.977 652.77L383.814 692.883L390.314 697.317L394.832 692.883V698.287L398.081 696.14L399.349 700.4L402.761 703.691L405.426 701.336L394.962 678.196L396.977 652.77Z" fill="#485621"/>
<path d="M396.977 652.769L394.962 678.195L405.427 701.335L410.237 697.109L417.972 690.908L424.374 664.131L418.459 605.484L416.672 597.205V597.101L412.349 576.906V552.415H402.47V576.733L398.667 586.19C398.667 586.19 399.22 596.443 398.667 597.205C398.082 597.967 398.667 631.707 398.667 631.707L396.977 652.769Z" fill="#7D983F"/>
<path d="M412.35 552.415V576.906L416.673 597.101L415.828 565.959L415.178 564.747L412.35 552.415Z" fill="#96A74B"/>
<path d="M415.827 565.961L416.672 597.103V597.207L418.46 605.486L424.374 664.132L429.184 691.533L449.561 722.398L458.596 725.1L470.458 769.093L480.89 798.919L501.235 784.197L518.816 798.711L524.796 806.401L545.563 825.453L539.746 813.468L533.799 803.041H528.436L526.746 795.697L499.025 754.406L482.613 718.934L463.113 684.57L453.233 676.083L427.494 613.176L419.012 571.884L415.827 565.961Z" fill="#96A74B"/>
<path d="M480.89 798.92L468.735 807.719L432.434 836.713H451.023L474.682 845.304H477.932L506.336 863.629H564.055L545.563 825.455L524.796 806.403L518.816 798.713L501.234 784.198L480.89 798.92Z" fill="#7D983F"/>
</svg>
