<svg width="210" height="210" viewBox="0 0 210 210" fill="none" xmlns="http://www.w3.org/2000/svg">
<rect x="2.5" y="2.5" width="205" height="205" rx="32.5" fill="#D9D9D9" stroke="#C8AC96" stroke-width="5"/>
<path d="M35.744 98.004C38.24 98.004 40.256 97.512 41.792 96.528L42.044 96.816C39.98 99.672 37.412 101.256 34.34 101.568C33.692 101.64 33.128 101.676 32.648 101.676C32.192 101.676 31.652 101.652 31.028 101.604C30.428 101.58 29.576 101.424 28.472 101.136C27.368 100.848 26.396 100.548 25.556 100.236C24.716 99.948 23.744 99.552 22.64 99.048C21.536 98.568 20.624 98.136 19.904 97.752C19.184 97.392 18.32 96.948 17.312 96.42C16.328 95.916 15.464 95.484 14.72 95.124C13.976 94.764 13.256 94.452 12.56 94.188C10.592 93.396 8.576 93 6.512 93V92.64H6.98C7.604 92.64 8.132 92.424 8.564 91.992C9.02 91.56 9.26 91.02 9.284 90.372V70.428C9.26 69.78 9.02 69.24 8.564 68.808C8.132 68.376 7.604 68.16 6.98 68.16H6.512V67.8H17.456L17.42 68.16H17.06C16.148 68.16 15.464 68.532 15.008 69.276C14.792 69.612 14.684 69.996 14.684 70.428V91.308C14.684 92.1 14.84 92.652 15.152 92.964C15.464 93.252 15.812 93.456 16.196 93.576C25.22 96.528 31.736 98.004 35.744 98.004ZM35.4298 67.296C39.8698 67.296 43.3978 68.472 46.0138 70.824C48.6298 73.176 49.9378 76.368 49.9378 80.4C49.9378 84.432 48.6298 87.624 46.0138 89.976C43.3978 92.328 39.8698 93.504 35.4298 93.504C30.9898 93.504 27.4618 92.328 24.8458 89.976C22.2298 87.624 20.9218 84.432 20.9218 80.4C20.9218 77.736 21.5098 75.42 22.6858 73.452C23.8858 71.46 25.5778 69.936 27.7618 68.88C29.9458 67.824 32.5018 67.296 35.4298 67.296ZM29.1298 88.896C30.6898 90.96 32.7898 91.992 35.4298 91.992C38.0698 91.992 40.1578 90.96 41.6938 88.896C43.2538 86.808 44.0338 83.976 44.0338 80.4C44.0338 78.048 43.6858 75.996 42.9898 74.244C42.2938 72.492 41.2978 71.148 40.0018 70.212C38.7058 69.276 37.1818 68.808 35.4298 68.808C32.7898 68.808 30.6898 69.852 29.1298 71.94C27.5938 74.004 26.8258 76.824 26.8258 80.4C26.8258 83.976 27.5938 86.808 29.1298 88.896ZM81.066 81.3H80.526C79.95 81.3 79.506 81.444 79.194 81.732C78.882 81.996 78.726 82.392 78.726 82.92V88.86C77.79 90.084 76.242 91.164 74.082 92.1C71.922 93.036 69.498 93.504 66.81 93.504C62.706 93.504 59.406 92.328 56.91 89.976C54.438 87.6 53.202 84.408 53.202 80.4C53.202 76.368 54.438 73.176 56.91 70.824C59.406 68.472 62.778 67.296 67.026 67.296C68.946 67.296 70.806 67.488 72.606 67.872C74.406 68.232 75.858 68.688 76.962 69.24L77.034 75.432H76.71C76.086 73.104 75.018 71.424 73.506 70.392C71.994 69.336 70.194 68.808 68.106 68.808C65.202 68.808 62.97 69.852 61.41 71.94C59.85 74.004 59.07 76.848 59.07 80.472C59.07 84.072 59.778 86.892 61.194 88.932C62.634 90.972 64.662 91.992 67.278 91.992C69.174 91.992 70.758 91.452 72.03 90.372C72.654 89.82 73.11 89.172 73.398 88.428V82.92C73.398 82.392 73.23 81.996 72.894 81.732C72.582 81.444 72.126 81.3 71.526 81.3H70.95V80.94H81.066V81.3ZM97.5158 67.296C101.956 67.296 105.484 68.472 108.1 70.824C110.716 73.176 112.024 76.368 112.024 80.4C112.024 84.432 110.716 87.624 108.1 89.976C105.484 92.328 101.956 93.504 97.5158 93.504C93.0758 93.504 89.5478 92.328 86.9318 89.976C84.3158 87.624 83.0078 84.432 83.0078 80.4C83.0078 77.736 83.5958 75.42 84.7718 73.452C85.9718 71.46 87.6638 69.936 89.8478 68.88C92.0318 67.824 94.5878 67.296 97.5158 67.296ZM91.2158 88.896C92.7758 90.96 94.8758 91.992 97.5158 91.992C100.156 91.992 102.244 90.96 103.78 88.896C105.34 86.808 106.12 83.976 106.12 80.4C106.12 78.048 105.772 75.996 105.076 74.244C104.38 72.492 103.384 71.148 102.088 70.212C100.792 69.276 99.2678 68.808 97.5158 68.808C94.8758 68.808 92.7758 69.852 91.2158 71.94C89.6798 74.004 88.9118 76.824 88.9118 80.4C88.9118 83.976 89.6798 86.808 91.2158 88.896ZM26.924 127.132C26.108 129.004 24.596 130.3 22.388 131.02C21.74 131.236 21.14 131.344 20.588 131.344C18.884 131.344 17.36 130.9 16.016 130.012V129.652C17.816 129.7 19.268 129.112 20.372 127.888C21.356 126.832 21.848 125.452 21.848 123.748C21.848 121.132 20.936 119.44 19.112 118.672C18.536 118.432 17.9 118.312 17.204 118.312H14.792V139.372C14.792 139.996 15.02 140.536 15.476 140.992C15.932 141.424 16.472 141.64 17.096 141.64H17.564V142H6.62V141.64H7.088C7.712 141.64 8.24 141.424 8.672 140.992C9.128 140.536 9.368 139.996 9.392 139.372V119.248C9.296 118.432 8.888 117.832 8.168 117.448C7.832 117.256 7.472 117.16 7.088 117.16H6.62V116.8H18.644C22.988 116.8 25.772 118.18 26.996 120.94C27.38 121.852 27.572 122.872 27.572 124C27.572 125.104 27.356 126.148 26.924 127.132ZM39.9675 118.384H38.4195C38.3715 118.384 38.3355 118.384 38.3115 118.384V139.372C38.3355 140.26 38.7195 140.92 39.4635 141.352C39.8235 141.544 40.2075 141.64 40.6155 141.64H41.0835V142H30.1395V141.64H30.6075C31.4715 141.64 32.1315 141.268 32.5875 140.524C32.7795 140.188 32.8875 139.816 32.9115 139.408V119.428C32.8875 118.804 32.6475 118.276 32.1915 117.844C31.7595 117.388 31.2315 117.16 30.6075 117.16H30.1395V116.8H42.4875C44.8155 116.8 46.7835 117.304 48.3915 118.312C49.2075 118.816 49.8555 119.524 50.3355 120.436C50.8155 121.324 51.0555 122.344 51.0555 123.496C51.0555 124.624 50.8515 125.668 50.4435 126.628C50.0595 127.588 49.3995 128.428 48.4635 129.148C47.5515 129.868 46.4475 130.3 45.1515 130.444C46.5435 130.9 47.7675 131.956 48.8235 133.612C51.4155 137.764 53.3355 140.236 54.5835 141.028C55.2075 141.412 55.9875 141.616 56.9235 141.64V142H53.3955C51.3555 142 49.6515 141.724 48.2835 141.172C46.9155 140.596 45.7995 139.624 44.9355 138.256C44.5035 137.56 43.9515 136.516 43.2795 135.124C42.6075 133.708 42.1635 132.7 41.9475 132.1C41.2995 130.66 40.4835 129.856 39.4995 129.688V129.328H40.6155C41.6955 129.328 42.6435 129.004 43.4595 128.356C44.2995 127.708 44.8635 126.652 45.1515 125.188C45.2475 124.684 45.2955 124.288 45.2955 124C45.2955 122.032 44.8995 120.616 44.1075 119.752C43.3155 118.864 42.2955 118.408 41.0475 118.384C40.8075 118.384 40.4475 118.384 39.9675 118.384ZM70.1291 116.296C74.5691 116.296 78.0971 117.472 80.7131 119.824C83.3291 122.176 84.6371 125.368 84.6371 129.4C84.6371 133.432 83.3291 136.624 80.7131 138.976C78.0971 141.328 74.5691 142.504 70.1291 142.504C65.6891 142.504 62.1611 141.328 59.5451 138.976C56.9291 136.624 55.6211 133.432 55.6211 129.4C55.6211 126.736 56.2091 124.42 57.3851 122.452C58.5851 120.46 60.2771 118.936 62.4611 117.88C64.6451 116.824 67.2011 116.296 70.1291 116.296ZM63.8291 137.896C65.3891 139.96 67.4891 140.992 70.1291 140.992C72.7691 140.992 74.8571 139.96 76.3931 137.896C77.9531 135.808 78.7331 132.976 78.7331 129.4C78.7331 127.048 78.3851 124.996 77.6891 123.244C76.9931 121.492 75.9971 120.148 74.7011 119.212C73.4051 118.276 71.8811 117.808 70.1291 117.808C67.4891 117.808 65.3891 118.852 63.8291 120.94C62.2931 123.004 61.5251 125.824 61.5251 129.4C61.5251 132.976 62.2931 135.808 63.8291 137.896ZM97.8148 117.16C97.1908 117.16 96.6508 117.388 96.1948 117.844C95.7628 118.276 95.5348 118.804 95.5108 119.428V140.92C95.5108 142.624 95.0548 144.148 94.1428 145.492C93.2308 146.836 92.1148 147.796 90.7948 148.372C89.4748 148.948 88.1548 149.236 86.8348 149.236C86.5228 149.236 86.2108 149.224 85.8988 149.2V148.876C87.3388 148.276 88.3948 147.232 89.0668 145.744C89.7628 144.28 90.1108 142.636 90.1108 140.812V119.428C90.0868 118.54 89.7028 117.88 88.9588 117.448C88.5988 117.256 88.2148 117.16 87.8068 117.16H87.3388V116.8H98.2828V117.16H97.8148ZM101.515 141.64C102.139 141.64 102.667 141.424 103.099 140.992C103.555 140.536 103.795 139.996 103.819 139.372V119.32C103.747 118.48 103.351 117.856 102.631 117.448C102.271 117.256 101.899 117.16 101.515 117.16H101.047V116.8H114.835C115.579 116.8 116.395 116.728 117.283 116.584C118.171 116.44 118.795 116.296 119.155 116.152V122.452H118.795V122.02C118.795 120.94 118.471 120.076 117.823 119.428C117.199 118.756 116.347 118.396 115.267 118.348H109.219V128.824H113.971C114.859 128.8 115.591 128.5 116.167 127.924C116.743 127.324 117.031 126.592 117.031 125.728V125.404H117.391V133.72H117.031V133.432C117.031 132.232 116.551 131.344 115.591 130.768C115.111 130.504 114.583 130.36 114.007 130.336H109.219V140.452H113.935C115.687 140.452 117.151 139.948 118.327 138.94C119.527 137.932 120.415 136.504 120.991 134.656H121.351L119.695 142H101.047V141.64H101.515ZM138.453 142.468C133.821 142.468 130.185 141.304 127.545 138.976C124.905 136.648 123.585 133.456 123.585 129.4C123.585 125.344 124.893 122.152 127.509 119.824C130.125 117.472 133.713 116.296 138.273 116.296C141.753 116.296 144.741 116.944 147.237 118.24L147.309 124.432H147.021C145.797 120.016 143.001 117.808 138.633 117.808C135.801 117.808 133.557 118.84 131.901 120.904C130.269 122.944 129.453 125.74 129.453 129.292C129.453 132.844 130.233 135.664 131.793 137.752C133.377 139.84 135.513 140.92 138.201 140.992C140.985 140.992 143.109 140.296 144.573 138.904C146.061 137.464 147.093 134.992 147.669 131.488H147.957L148.317 137.68C146.373 140.896 143.085 142.492 138.453 142.468ZM164.779 118.276V139.408C164.803 140.032 165.031 140.56 165.463 140.992C165.919 141.424 166.459 141.64 167.083 141.64H167.515L167.551 142H156.607V141.64H157.075C157.675 141.64 158.191 141.424 158.623 140.992C159.079 140.56 159.331 140.044 159.379 139.444V118.276H154.519C153.415 118.3 152.539 118.648 151.891 119.32C151.243 119.992 150.919 120.868 150.919 121.948V122.38H150.559V116.116C150.895 116.26 151.495 116.404 152.359 116.548C153.247 116.692 154.063 116.764 154.807 116.764H169.315C170.491 116.74 171.451 116.644 172.195 116.476C172.939 116.308 173.395 116.188 173.563 116.116V122.38H173.203V121.948C173.203 120.868 172.879 119.992 172.231 119.32C171.583 118.648 170.707 118.3 169.603 118.276H164.779Z" fill="#F7B536"/>
</svg>
