<svg width="230" height="230" viewBox="0 0 230 230" fill="none" xmlns="http://www.w3.org/2000/svg">
<rect width="18.6109" height="24.813" transform="matrix(0 1 1 0 0 105.692)" fill="#9A7356"/>
<rect width="18.6109" height="24.813" transform="matrix(0 1 1 0 205.188 105.692)" fill="#9A7356"/>
<rect width="18.6097" height="24.8145" transform="matrix(1 -4.37141e-08 -4.37087e-08 -1 105.715 230)" fill="#9A7356"/>
<rect width="18.6097" height="24.8145" transform="matrix(1 -4.37141e-08 -4.37087e-08 -1 105.715 24.8145)" fill="#9A7356"/>
<rect width="18.61" height="24.8141" transform="matrix(0.866012 -0.500024 -0.499977 -0.866039 164.445 219.235)" fill="#9A7356"/>
<rect width="18.61" height="24.8141" transform="matrix(0.866012 -0.500024 -0.499977 -0.866039 61.8633 41.5435)" fill="#9A7356"/>
<rect width="18.6106" height="24.8133" transform="matrix(0.499976 -0.866039 -0.866012 -0.500023 209.947 180.553)" fill="#9A7356"/>
<rect width="18.6106" height="24.8133" transform="matrix(0.499976 -0.866039 -0.866012 -0.500023 32.2637 77.9629)" fill="#9A7356"/>
<rect width="18.6106" height="24.8133" transform="matrix(-0.499977 -0.866039 -0.866012 0.500024 219.25 65.5591)" fill="#9A7356"/>
<rect width="18.6106" height="24.8133" transform="matrix(-0.499977 -0.866039 -0.866012 0.500024 41.5586 168.148)" fill="#9A7356"/>
<rect width="18.61" height="24.8141" transform="matrix(-0.866012 -0.500023 -0.499976 0.866039 180.557 20.0532)" fill="#9A7356"/>
<rect width="18.61" height="24.8141" transform="matrix(-0.866012 -0.500023 -0.499976 0.866039 77.9727 197.751)" fill="#9A7356"/>
<path fill-rule="evenodd" clip-rule="evenodd" d="M115.305 217.874C172.005 217.874 217.969 171.907 217.969 115.204C217.969 58.5004 172.005 12.5335 115.305 12.5335C58.6057 12.5335 12.6416 58.5004 12.6416 115.204C12.6416 171.907 58.6057 217.874 115.305 217.874ZM115.305 196.781C69.9113 196.781 33.1123 160.258 33.1123 115.204C33.1123 70.1494 69.9113 33.6258 115.305 33.6258C160.699 33.6258 197.498 70.1494 197.498 115.204C197.498 160.258 160.699 196.781 115.305 196.781Z" fill="#9A7356"/>
<path fill-rule="evenodd" clip-rule="evenodd" d="M114.997 173.908C147.544 173.908 173.928 147.522 173.928 114.973C173.928 82.4247 147.544 56.0388 114.997 56.0388C82.4506 56.0388 56.0664 82.4247 56.0664 114.973C56.0664 147.522 82.4506 173.908 114.997 173.908ZM114.997 161.8C88.9403 161.8 67.817 140.835 67.817 114.973C67.817 89.1114 88.9403 68.1462 114.997 68.1462C141.054 68.1462 162.177 89.1114 162.177 114.973C162.177 140.835 141.054 161.8 114.997 161.8Z" fill="#9A7356"/>
<ellipse cx="29.4654" cy="29.4672" rx="29.4654" ry="29.4672" transform="matrix(1 0 0 -1 85.6973 144.601)" fill="#9A7356"/>
<rect width="9.92518" height="105.462" transform="matrix(1 0 0 -1 110.506 133.319)" fill="#9A7356"/>
<rect width="9.92565" height="109.807" transform="matrix(-0.499977 -0.866039 -0.866012 0.500024 140.205 105.473)" fill="#9A7356"/>
<rect width="10.144" height="112.097" transform="matrix(0.499977 -0.866039 0.866012 0.500024 87.8926 106.974)" fill="#9A7356"/>
<mask id="path-19-inside-1_376_301" fill="white">
<path d="M114.854 137.771C127.53 137.77 137.807 127.493 137.807 114.816C137.807 102.14 127.53 91.8634 114.854 91.8633C102.179 91.8633 91.9024 102.14 91.9023 114.816C91.9023 127.493 102.178 137.771 114.854 137.771ZM114.846 133.484C104.536 133.484 96.1777 125.126 96.1777 114.815C96.1778 104.505 104.536 96.1465 114.846 96.1465C125.155 96.1467 133.513 104.505 133.513 114.815C133.513 125.126 125.155 133.484 114.846 133.484Z"/>
</mask>
<path d="M114.854 137.771C127.53 137.77 137.807 127.493 137.807 114.816C137.807 102.14 127.53 91.8634 114.854 91.8633C102.179 91.8633 91.9024 102.14 91.9023 114.816C91.9023 127.493 102.178 137.771 114.854 137.771ZM114.846 133.484C104.536 133.484 96.1777 125.126 96.1777 114.815C96.1778 104.505 104.536 96.1465 114.846 96.1465C125.155 96.1467 133.513 104.505 133.513 114.815C133.513 125.126 125.155 133.484 114.846 133.484Z" fill="#442925"/>
<path d="M114.854 137.771L114.863 1137.77H114.854V137.771ZM137.807 114.816L1137.81 114.808V114.816H137.807ZM114.854 91.8633L114.854 -908.137L114.863 -908.137L114.854 91.8633ZM91.9023 114.816L-908.098 114.816L-908.098 114.808L91.9023 114.816ZM114.846 133.484L114.865 1133.48L114.855 1133.48H114.846V133.484ZM96.1777 114.815L-903.822 114.815L-903.822 114.808L96.1777 114.815ZM114.846 96.1465V-903.854H114.855L114.865 -903.854L114.846 96.1465ZM133.513 114.815L1133.51 114.808V114.815H133.513ZM114.854 137.771L114.846 -862.229C-424.836 -862.225 -862.193 -424.711 -862.193 114.816H137.807H1137.81C1137.81 679.698 679.897 1137.77 114.863 1137.77L114.854 137.771ZM137.807 114.816L-862.193 114.825C-862.189 654.393 -424.789 1091.86 114.846 1091.86L114.854 91.8633L114.863 -908.137C679.85 -908.132 1137.8 -450.114 1137.81 114.808L137.807 114.816ZM114.854 91.8633V1091.86C654.505 1091.86 1091.9 654.385 1091.9 114.825L91.9023 114.816L-908.098 114.808C-908.093 -450.106 -450.147 -908.137 114.854 -908.137V91.8633ZM91.9023 114.816H1091.9C1091.9 -424.703 654.552 -862.229 114.854 -862.229V137.771V1137.77C-450.195 1137.77 -908.098 679.69 -908.098 114.816H91.9023ZM114.846 133.484V1133.48C-447.795 1133.48 -903.822 677.365 -903.822 114.815H96.1777H1096.18C1096.18 -427.113 656.866 -866.516 114.846 -866.516V133.484ZM96.1777 114.815L-903.822 114.808C-903.818 -447.728 -447.802 -903.854 114.846 -903.854V96.1465V1096.15C656.873 1096.15 1096.17 656.739 1096.18 114.823L96.1777 114.815ZM114.846 96.1465L114.865 -903.854C677.546 -903.843 1133.51 -447.679 1133.51 114.808L133.513 114.815L-866.487 114.823C-866.483 656.689 -427.236 1096.14 114.827 1096.15L114.846 96.1465ZM133.513 114.815H1133.51C1133.51 677.315 677.539 1133.47 114.865 1133.48L114.846 133.484L114.827 -866.516C-427.229 -866.505 -866.487 -427.064 -866.487 114.815H133.513Z" fill="black" mask="url(#path-19-inside-1_376_301)"/>
</svg>
