<svg width="230" height="230" viewBox="0 0 230 230" fill="none" xmlns="http://www.w3.org/2000/svg">
<rect y="123.703" width="18.2289" height="24.3924" transform="rotate(-90 0 123.703)" fill="#9A7356"/>
<rect x="205.609" y="123.703" width="18.2289" height="24.3924" transform="rotate(-90 205.609 123.703)" fill="#9A7356"/>
<rect x="104.482" width="18.2943" height="24.3051" fill="#9A7356"/>
<rect x="104.482" y="205.695" width="18.2943" height="24.3051" fill="#9A7356"/>
<rect x="54.3359" y="123.16" width="18.2289" height="24.3924" transform="rotate(-90 54.3359 123.16)" fill="#9A7356"/>
<rect x="147.947" y="123.16" width="18.2289" height="24.3924" transform="rotate(-90 147.947 123.16)" fill="#9A7356"/>
<rect x="104.482" y="50.7988" width="18.2943" height="24.3051" fill="#9A7356"/>
<rect x="104.482" y="149.068" width="18.2943" height="24.3051" fill="#9A7356"/>
<rect width="18.2616" height="24.3488" transform="matrix(0.708373 -0.705838 0.708373 0.705838 63.7598 78.3462)" fill="#9A7356"/>
<rect width="18.2616" height="24.3488" transform="matrix(0.708373 -0.705838 0.708373 0.705838 129.945 144.299)" fill="#9A7356"/>
<rect width="18.2616" height="24.3488" transform="matrix(0.708373 0.705838 -0.708373 0.705838 150.57 62.5122)" fill="#9A7356"/>
<rect width="18.2616" height="24.3488" transform="matrix(0.708373 0.705838 -0.708373 0.705838 80.832 132)" fill="#9A7356"/>
<rect width="18.2452" height="24.3706" transform="matrix(0.501345 0.865247 -0.8668 0.498656 210.021 49.4028)" fill="#9A7356"/>
<rect width="18.2452" height="24.3706" transform="matrix(0.501345 0.865247 -0.8668 0.498656 31.9668 151.831)" fill="#9A7356"/>
<rect width="18.2452" height="24.3706" transform="matrix(-0.501345 0.865247 -0.8668 -0.498656 219.166 163.986)" fill="#9A7356"/>
<rect width="18.2452" height="24.3706" transform="matrix(-0.501345 0.865247 -0.8668 -0.498656 41.1094 61.5547)" fill="#9A7356"/>
<rect width="18.278" height="24.327" transform="matrix(-0.8668 0.498656 -0.501345 -0.865247 180.422 209.26)" fill="#9A7356"/>
<rect width="18.278" height="24.327" transform="matrix(-0.8668 0.498656 -0.501345 -0.865247 77.6133 31.8472)" fill="#9A7356"/>
<rect width="18.278" height="24.327" transform="matrix(-0.8668 -0.498656 0.501345 -0.865247 65.4258 218.375)" fill="#9A7356"/>
<rect width="18.278" height="24.327" transform="matrix(-0.8668 -0.498656 0.501345 -0.865247 168.227 40.959)" fill="#9A7356"/>
<path d="M113.474 13.8662C169.213 13.8664 214.399 58.8913 214.399 114.432C214.399 169.972 169.213 214.996 113.474 214.996C57.7338 214.996 12.5471 169.972 12.5469 114.432C12.5469 58.8911 57.7336 13.8662 113.474 13.8662ZM113.481 34.5244C68.8559 34.5245 32.6797 70.2994 32.6797 114.43C32.6799 158.56 68.856 194.334 113.481 194.334C158.107 194.334 194.283 158.56 194.283 114.43C194.283 70.2993 158.107 34.5244 113.481 34.5244Z" fill="#9A7356"/>
<ellipse cx="113.673" cy="114.635" rx="46.8023" ry="46.6348" fill="#9A7356"/>
<mask id="path-23-inside-1_376_248" fill="white">
<path d="M113.677 92.1475C126.138 92.1475 136.24 102.214 136.24 114.631C136.24 127.048 126.138 137.113 113.677 137.113C101.215 137.113 91.1135 127.048 91.1133 114.631C91.1133 102.214 101.215 92.1476 113.677 92.1475ZM113.68 96.3467C103.544 96.3467 95.3281 104.534 95.3281 114.633C95.3282 124.732 103.544 132.919 113.68 132.919C123.815 132.919 132.031 124.732 132.031 114.633C132.031 104.534 123.815 96.3467 113.68 96.3467Z"/>
</mask>
<path d="M113.677 92.1475C126.138 92.1475 136.24 102.214 136.24 114.631C136.24 127.048 126.138 137.113 113.677 137.113C101.215 137.113 91.1135 127.048 91.1133 114.631C91.1133 102.214 101.215 92.1476 113.677 92.1475ZM113.68 96.3467C103.544 96.3467 95.3281 104.534 95.3281 114.633C95.3282 124.732 103.544 132.919 113.68 132.919C123.815 132.919 132.031 124.732 132.031 114.633C132.031 104.534 123.815 96.3467 113.68 96.3467Z" fill="#442925"/>
<path d="M113.677 92.1475L113.677 -907.853L113.669 -907.853L113.677 92.1475ZM136.24 114.631L1136.24 114.651L1136.24 114.641V114.631H136.24ZM113.677 137.113L113.669 1137.11H113.677V137.113ZM91.1133 114.631H-908.887V114.641L-908.887 114.651L91.1133 114.631ZM113.68 96.3467L113.68 -903.653L113.673 -903.653L113.68 96.3467ZM95.3281 114.633L-904.672 114.633L-904.672 114.64L95.3281 114.633ZM113.68 132.919L113.673 1132.92H113.68V132.919ZM132.031 114.633L1132.03 114.64V114.633H132.031ZM113.677 92.1475V1092.15C-422.802 1092.15 -863.76 657.837 -863.76 114.631H136.24H1136.24C1136.24 -453.409 675.079 -907.853 113.677 -907.853V92.1475ZM136.24 114.631L-863.76 114.611C-863.749 -428.617 -422.766 -862.887 113.677 -862.887V137.113V1137.11C675.042 1137.11 1136.23 682.712 1136.24 114.651L136.24 114.631ZM113.677 137.113L113.685 -862.887C650.113 -862.883 1091.1 -428.624 1091.11 114.611L91.1133 114.631L-908.887 114.651C-908.875 682.719 -447.682 1137.11 113.669 1137.11L113.677 137.113ZM91.1133 114.631H1091.11C1091.11 657.845 650.15 1092.14 113.685 1092.15L113.677 92.1475L113.669 -907.853C-447.719 -907.848 -908.887 -453.417 -908.887 114.631H91.1133ZM113.68 96.3467L113.673 -903.653C-445.37 -903.65 -904.672 -451.117 -904.672 114.633H95.3281H1095.33C1095.33 660.185 652.458 1096.34 113.686 1096.35L113.68 96.3467ZM95.3281 114.633L-904.672 114.64C-904.668 680.377 -445.377 1132.92 113.673 1132.92L113.68 132.919L113.686 -867.081C652.466 -867.077 1095.32 -430.913 1095.33 114.625L95.3281 114.633ZM113.68 132.919V1132.92C672.742 1132.92 1132.03 680.37 1132.03 114.64L132.031 114.633L-867.969 114.625C-867.965 -430.907 -425.112 -867.081 113.68 -867.081V132.919ZM132.031 114.633H1132.03C1132.03 -451.111 672.734 -903.653 113.68 -903.653V96.3467V1096.35C-425.104 1096.35 -867.969 660.178 -867.969 114.633H132.031Z" fill="black" mask="url(#path-23-inside-1_376_248)"/>
</svg>
