<svg width="230" height="230" viewBox="0 0 230 230" fill="none" xmlns="http://www.w3.org/2000/svg">
<rect y="124.143" width="18.2948" height="24.394" transform="rotate(-90 0 124.143)" fill="#9A7356"/>
<rect x="205.605" y="124.143" width="18.2948" height="24.394" transform="rotate(-90 205.605 124.143)" fill="#9A7356"/>
<rect x="105.85" width="18.2955" height="24.3931" fill="#9A7356"/>
<path d="M178.567 56.9888C178.567 56.9888 203.981 82.4017 191.274 69.6953C178.567 56.9888 157.882 77.6732 157.882 77.6732C157.882 77.6732 137.197 98.3576 149.904 111.064C162.611 123.771 137.197 98.3576 137.197 98.3576L178.567 56.9888Z" fill="#9A7356"/>
<path d="M173.273 51.6945L178.567 56.9888L157.882 77.6732L137.197 98.3576L131.902 93.0632L152.588 72.3788L173.273 51.6945Z" fill="#9A7356"/>
<path d="M173.273 51.6945C173.273 51.6945 147.859 26.2815 160.566 38.988C173.273 51.6945 152.588 72.3788 152.588 72.3788C152.588 72.3788 131.902 93.0632 119.195 80.3568C106.488 67.6504 131.902 93.0632 131.902 93.0632L173.273 51.6945Z" fill="#9A7356"/>
<path d="M98.7821 136.775C98.7821 136.775 124.196 162.188 111.489 149.482C98.7821 136.775 78.0969 157.46 78.0969 157.46C78.0969 157.46 57.4117 178.144 70.1187 190.851C82.8256 203.557 57.4117 178.144 57.4117 178.144L98.7821 136.775Z" fill="#9A7356"/>
<path d="M93.4876 131.481L98.7821 136.775L78.0969 157.46L57.4117 178.144L52.1172 172.85L72.8024 152.165L93.4876 131.481Z" fill="#9A7356"/>
<path d="M93.4876 131.481C93.4876 131.481 68.0737 106.068 80.7806 118.775C93.4876 131.481 72.8024 152.165 72.8024 152.165C72.8024 152.165 52.1171 172.85 39.4102 160.143C26.7033 147.437 52.1172 172.85 52.1172 172.85L93.4876 131.481Z" fill="#9A7356"/>
<path d="M173.259 178.14C173.259 178.14 147.845 203.553 160.552 190.846C173.259 178.14 152.574 157.455 152.574 157.455C152.574 157.455 131.889 136.771 119.182 149.477C106.475 162.184 131.889 136.771 131.889 136.771L173.259 178.14Z" fill="#9A7356"/>
<path d="M178.553 172.845L173.259 178.14L152.574 157.455L131.889 136.771L137.183 131.477L157.868 152.161L178.553 172.845Z" fill="#9A7356"/>
<path d="M178.553 172.845C178.553 172.845 203.967 147.432 191.26 160.139C178.553 172.845 157.868 152.161 157.868 152.161C157.868 152.161 137.183 131.476 149.89 118.77C162.597 106.064 137.183 131.477 137.183 131.477L178.553 172.845Z" fill="#9A7356"/>
<path d="M93.4874 98.3609C93.4874 98.3609 68.0735 123.774 80.7805 111.067C93.4874 98.3609 72.8022 77.6765 72.8022 77.6765C72.8022 77.6765 52.117 56.9921 39.4101 69.6985C26.7031 82.405 52.117 56.9921 52.117 56.9921L93.4874 98.3609Z" fill="#9A7356"/>
<path d="M98.782 93.0665L93.4874 98.3609L72.8022 77.6765L52.117 56.9921L57.4116 51.6977L78.0968 72.3821L98.782 93.0665Z" fill="#9A7356"/>
<path d="M98.782 93.0665C98.782 93.0665 124.196 67.6536 111.489 80.3601C98.782 93.0665 78.0968 72.3821 78.0968 72.3821C78.0968 72.3821 57.4116 51.6977 70.1186 38.9913C82.8255 26.2848 57.4116 51.6977 57.4116 51.6977L98.782 93.0665Z" fill="#9A7356"/>
<rect x="105.85" y="205.607" width="18.2955" height="24.3931" fill="#9A7356"/>
<rect width="18.295" height="24.3938" transform="matrix(0.500014 0.866017 -0.866034 0.499986 210.027 49.5742)" fill="#9A7356"/>
<rect width="18.295" height="24.3938" transform="matrix(0.500014 0.866017 -0.866034 0.499986 31.9609 152.38)" fill="#9A7356"/>
<rect width="18.295" height="24.3938" transform="matrix(-0.500014 0.866017 -0.866034 -0.499986 219.166 164.572)" fill="#9A7356"/>
<rect width="18.295" height="24.3938" transform="matrix(-0.500014 0.866017 -0.866034 -0.499986 41.1055 61.7773)" fill="#9A7356"/>
<rect width="18.2953" height="24.3933" transform="matrix(-0.866034 0.499985 -0.500014 -0.866017 180.426 210.017)" fill="#9A7356"/>
<rect width="18.2953" height="24.3933" transform="matrix(-0.866034 0.499985 -0.500014 -0.866017 77.6191 31.9624)" fill="#9A7356"/>
<rect width="18.2953" height="24.3933" transform="matrix(-0.866034 -0.499986 0.500014 -0.866017 65.4219 219.158)" fill="#9A7356"/>
<rect width="18.2953" height="24.3933" transform="matrix(-0.866034 -0.499986 0.500014 -0.866017 168.223 41.104)" fill="#9A7356"/>
<path d="M113.462 13.9165C169.205 13.9165 214.395 59.1038 214.395 114.845C214.394 170.587 169.205 215.774 113.462 215.774C57.7184 215.774 12.5293 170.587 12.5293 114.845C12.5293 59.1038 57.7184 13.9165 113.462 13.9165ZM113.469 34.6489C68.8406 34.6492 32.6623 70.5526 32.6621 114.842C32.6621 159.132 68.8404 195.036 113.469 195.037C158.097 195.037 194.276 159.132 194.276 114.842C194.276 70.5525 158.097 34.6489 113.469 34.6489Z" fill="#9A7356"/>
<ellipse cx="115.342" cy="115.342" rx="35.9397" ry="35.9384" fill="#9A7356"/>
<mask id="path-19-inside-1_376_224" fill="white">
<path d="M115.345 92.7676C127.807 92.7678 137.909 102.87 137.909 115.332C137.909 127.794 127.807 137.895 115.345 137.896C102.882 137.896 92.7794 127.794 92.7793 115.332C92.7793 102.87 102.882 92.7676 115.345 92.7676ZM115.349 96.9814C105.213 96.9816 96.9961 105.198 96.9961 115.334C96.9963 125.469 105.213 133.685 115.349 133.686C125.485 133.686 133.702 125.469 133.702 115.334C133.702 105.198 125.485 96.9814 115.349 96.9814Z"/>
</mask>
<path d="M115.345 92.7676C127.807 92.7678 137.909 102.87 137.909 115.332C137.909 127.794 127.807 137.895 115.345 137.896C102.882 137.896 92.7794 127.794 92.7793 115.332C92.7793 102.87 102.882 92.7676 115.345 92.7676ZM115.349 96.9814C105.213 96.9816 96.9961 105.198 96.9961 115.334C96.9963 125.469 105.213 133.685 115.349 133.686C125.485 133.686 133.702 125.469 133.702 115.334C133.702 105.198 125.485 96.9814 115.349 96.9814Z" fill="#442925"/>
<path d="M115.345 92.7676L115.364 -907.232L115.354 -907.232H115.345V92.7676ZM137.909 115.332L1137.91 115.341V115.332H137.909ZM115.345 137.896V1137.9H115.354L115.364 1137.9L115.345 137.896ZM92.7793 115.332L-907.221 115.332L-907.221 115.341L92.7793 115.332ZM115.349 96.9814V-903.019H115.34L115.331 -903.019L115.349 96.9814ZM96.9961 115.334H-903.004V115.343L-903.004 115.352L96.9961 115.334ZM115.349 133.686L115.331 1133.69L115.34 1133.69H115.349V133.686ZM133.702 115.334L1133.7 115.352L1133.7 115.343V115.334H133.702ZM115.345 92.7676L115.326 1092.77C-424.477 1092.76 -862.091 655.16 -862.091 115.332H137.909H1137.91C1137.91 -449.419 680.091 -907.222 115.364 -907.232L115.345 92.7676ZM137.909 115.332L-862.091 115.323C-862.086 -424.545 -424.43 -862.094 115.326 -862.104L115.345 137.896L115.364 1137.9C680.044 1137.88 1137.9 680.132 1137.91 115.341L137.909 115.332ZM115.345 137.896V-862.104C655.078 -862.104 1092.77 -424.583 1092.78 115.323L92.7793 115.332L-907.221 115.341C-907.215 680.17 -449.313 1137.9 115.345 1137.9V137.896ZM92.7793 115.332H1092.78C1092.78 655.198 655.125 1092.77 115.345 1092.77V92.7676V-907.232C-449.36 -907.232 -907.221 -449.457 -907.221 115.332H92.7793ZM115.349 96.9814L115.331 -903.019C-447.072 -903.009 -903.004 -447.09 -903.004 115.334H96.9961H1097C1097 657.487 657.498 1096.97 115.366 1096.98L115.349 96.9814ZM96.9961 115.334L-903.004 115.352C-902.994 677.813 -447.021 1133.68 115.331 1133.69L115.349 133.686L115.366 -866.314C657.447 -866.305 1096.99 -426.874 1097 115.316L96.9961 115.334ZM115.349 133.686V1133.69C677.663 1133.69 1133.69 677.865 1133.7 115.352L133.702 115.334L-866.298 115.316C-866.288 -426.926 -426.693 -866.314 115.349 -866.314V133.686ZM133.702 115.334H1133.7C1133.7 -447.142 677.714 -903.019 115.349 -903.019V96.9814V1096.98C-426.745 1096.98 -866.298 657.539 -866.298 115.334H133.702Z" fill="black" mask="url(#path-19-inside-1_376_224)"/>
</svg>
